<?xml version="1.0" encoding="utf-8"?>
<svg viewBox="0 0 60 60" xmlns="http://www.w3.org/2000/svg">
  <g transform="matrix(2.021291017532349, 0, 0, 2.0212230682373047, -158.137727008296, -1909.7182759472603)">
    <path id="path11708" d="M 90.279 956.081 L 90.279 965.459 L 87.752 965.459 L 87.752 956.081 L 84.236 956.081 L 84.236 954.024 L 93.792 954.024 L 93.792 956.081 L 90.279 956.081 Z" style="fill:#231f20;fill-opacity:1;fill-rule:nonzero;stroke:none" clip-path="url(#clipPath11709)"/>
    <path id="path11710" d="M 99.491 965.459 L 99.491 956.471 C 98.795 957.021 97.692 957.555 96.932 957.895 L 96.153 956.146 C 97.352 955.643 98.795 954.883 99.928 954.023 L 101.92 954.023 L 101.92 965.459 L 99.491 965.459 Z" style="fill:#231f20;fill-opacity:1;fill-rule:nonzero;stroke:none" clip-path="url(#clipPath11711)"/>
    <path id="path11712" d="M 106.436 949.287 L 79.72 949.287 C 78.901 949.287 78.236 948.621 78.236 947.803 L 78.236 946.317 C 78.236 945.499 78.901 944.833 79.72 944.833 L 106.436 944.833 C 107.256 944.833 107.92 945.499 107.92 946.317 L 107.92 947.803 C 107.92 948.621 107.256 949.287 106.436 949.287" style="fill: rgb(25, 106, 189); fill-opacity: 1; fill-rule: nonzero; stroke: none;" clip-path="url(#clipPath11713)"/>
    <path id="path11714" d="M 107.92 973.034 L 107.92 971.549 C 107.92 970.729 107.256 970.066 106.436 970.066 L 79.72 970.066 C 78.9 970.066 78.236 970.729 78.236 971.549 L 78.236 973.034 C 78.236 973.853 78.9 974.518 79.72 974.518 L 106.436 974.518 C 107.256 974.518 107.92 973.853 107.92 973.034" style="fill:#196abd;fill-opacity:1;fill-rule:nonzero;stroke:none" clip-path="url(#clipPath11715)"/>
  </g>
</svg>