<?xml version="1.0" encoding="utf-8"?>
<svg viewBox="0 0 60 60" xmlns="http://www.w3.org/2000/svg">
  <g transform="matrix(0.47364902496337885, 0, 0, 0.47364902496337885, -0.1238540047694272, 16.060499310944223)">
    <path id="path11848" d="M 120.605 -14.906 L 6.603 -14.906 C 3.095 -14.906 0.27 -17.743 0.27 -21.243 L 0.27 -27.571 C 0.27 -31.07 3.095 -33.908 6.603 -33.908 L 120.605 -33.908 C 124.095 -33.908 126.937 -31.07 126.937 -27.571 L 126.937 -21.243 C 126.937 -17.743 124.095 -14.906 120.605 -14.906" style="fill:#8f9828;fill-opacity:1;fill-rule:nonzero;stroke:none" clip-path="url(#clipPath11849)"/>
    <path id="path11850" d="M 126.937 86.427 L 126.937 80.094 C 126.937 76.595 124.104 73.762 120.605 73.762 L 6.603 73.762 C 3.104 73.762 0.262 76.595 0.262 80.094 L 0.262 86.427 C 0.262 89.926 3.104 92.768 6.603 92.768 L 120.605 92.768 C 124.104 92.768 126.937 89.926 126.937 86.427" style="fill:#8f9828;fill-opacity:1;fill-rule:nonzero;stroke:none" clip-path="url(#clipPath11851)"/>
    <path id="path11852" d="M 30.405 14.107 L 30.405 54.129 L 19.626 54.129 L 19.626 14.107 L 4.623 14.107 L 4.623 5.329 L 45.4 5.329 L 45.4 14.107 L 30.405 14.107 Z" style="fill:#231f20;fill-opacity:1;fill-rule:nonzero;stroke:none" clip-path="url(#clipPath11853)"/>
    <path id="path11854" d="M 69.714 54.124 L 69.714 15.767 C 66.745 18.114 62.042 20.397 58.799 21.847 L 55.475 14.384 C 60.591 12.238 66.745 8.995 71.584 5.325 L 80.084 5.325 L 80.084 54.124 L 69.714 54.124 Z" style="fill:#231f20;fill-opacity:1;fill-rule:nonzero;stroke:none" clip-path="url(#clipPath11855)"/>
    <path id="path11856" d="M 104.675 55.434 C 89.958 55.434 87.056 40.922 87.056 29.656 C 87.056 18.391 90.231 3.878 104.953 3.878 C 119.675 3.878 122.581 18.391 122.581 29.656 C 122.581 40.922 119.401 55.434 104.675 55.434 M 104.812 12.097 C 97.763 12.097 97.558 24.677 97.558 29.656 C 97.558 34.568 97.903 47.276 104.812 47.276 C 111.725 47.276 112.002 34.5 112.002 29.656 C 112.002 24.54 111.797 12.097 104.812 12.097" style="fill:#231f20;fill-opacity:1;fill-rule:nonzero;stroke:none" clip-path="url(#clipPath11857)"/>
  </g>
</svg>