<?xml version="1.0" encoding="utf-8"?>
<svg viewBox="0 0 60 60" xmlns="http://www.w3.org/2000/svg">
  <g transform="matrix(0.4736680090427398, 0, 0, 0.4736680090427398, 20.70924011401266, 21.091255345130364)">
    <path id="path11812" d="M 76.617 -25.528 L -37.385 -25.528 C -40.884 -25.528 -43.717 -28.361 -43.717 -31.869 L -43.717 -38.193 C -43.717 -41.692 -40.884 -44.525 -37.385 -44.525 L 76.617 -44.525 C 80.108 -44.525 82.95 -41.692 82.95 -38.193 L 82.95 -31.869 C 82.95 -28.361 80.108 -25.528 76.617 -25.528" style="fill:#f57f3a;fill-opacity:1;fill-rule:nonzero;stroke:none" clip-path="url(#clipPath11813)"/>
    <path id="path11814" d="M 82.945 75.805 L 82.945 69.472 C 82.945 65.973 80.112 63.144 76.613 63.144 L -37.389 63.144 C -40.888 63.144 -43.721 65.973 -43.721 69.472 L -43.721 75.805 C -43.721 79.304 -40.888 82.141 -37.389 82.141 L 76.613 82.141 C 80.112 82.141 82.945 79.304 82.945 75.805" style="fill:#f57f3a;fill-opacity:1;fill-rule:nonzero;stroke:none" clip-path="url(#clipPath11815)"/>
    <path id="path11816" d="M -7.531 3.489 L -7.531 43.502 L -18.315 43.502 L -18.315 3.489 L -33.318 3.489 L -33.318 -5.293 L 7.459 -5.293 L 7.459 3.489 L -7.531 3.489 Z" style="fill:#231f20;fill-opacity:1;fill-rule:nonzero;stroke:none" clip-path="url(#clipPath11817)"/>
    <path id="path11818" d="M 31.778 43.502 L 31.778 5.149 C 28.808 7.492 24.101 9.774 20.858 11.225 L 17.542 3.762 C 22.65 1.616 28.808 -1.623 33.643 -5.293 L 42.143 -5.293 L 42.143 43.502 L 31.778 43.502 Z" style="fill:#231f20;fill-opacity:1;fill-rule:nonzero;stroke:none" clip-path="url(#clipPath11819)"/>
    <path id="path11820" d="M 62.177 43.502 L 62.177 5.149 C 59.207 7.492 54.5 9.774 51.257 11.225 L 47.942 3.762 C 53.05 1.616 59.207 -1.623 64.042 -5.293 L 72.542 -5.293 L 72.542 43.502 L 62.177 43.502 Z" style="fill:#231f20;fill-opacity:1;fill-rule:nonzero;stroke:none" clip-path="url(#clipPath11821)"/>
  </g>
</svg>