<?xml version="1.0" encoding="utf-8"?>
<svg viewBox="0 0 60 60" xmlns="http://www.w3.org/2000/svg">
  <g transform="matrix(0.4736640155315398, 0, 0, 0.4736640155315398, -12.603026483975547, 19.4046021953568)">
    <path id="path11836" d="M 146.938 -21.965 L 32.949 -21.965 C 29.446 -21.965 26.612 -24.802 26.612 -28.302 L 26.612 -34.63 C 26.612 -38.129 29.446 -40.967 32.949 -40.967 L 146.938 -40.967 C 150.437 -40.967 153.279 -38.129 153.279 -34.63 L 153.279 -28.302 C 153.279 -24.802 150.437 -21.965 146.938 -21.965" style="fill:#b90c47;fill-opacity:1;fill-rule:nonzero;stroke:none" clip-path="url(#clipPath11837)"/>
    <path id="path11838" d="M 153.275 79.368 L 153.275 73.035 C 153.275 69.536 150.442 66.703 146.934 66.703 L 32.945 66.703 C 29.446 66.703 26.608 69.536 26.608 73.035 L 26.608 79.368 C 26.608 82.867 29.446 85.705 32.945 85.705 L 146.934 85.705 C 150.442 85.705 153.275 82.867 153.275 79.368" style="fill:#b90c47;fill-opacity:1;fill-rule:nonzero;stroke:none" clip-path="url(#clipPath11839)"/>
    <path id="path11840" d="M 58.066 7.052 L 58.066 47.065 L 47.283 47.065 L 47.283 7.052 L 32.279 7.052 L 32.279 -1.726 L 73.056 -1.726 L 73.056 7.052 L 58.066 7.052 Z" style="fill:#231f20;fill-opacity:1;fill-rule:nonzero;stroke:none" clip-path="url(#clipPath11841)"/>
    <path id="path11842" d="M 97.371 47.07 L 97.371 8.716 C 94.401 11.059 89.698 13.342 86.455 14.793 L 83.136 7.325 C 88.248 5.183 94.401 1.94 99.24 -1.726 L 107.74 -1.726 L 107.74 47.07 L 97.371 47.07 Z" style="fill:#231f20;fill-opacity:1;fill-rule:nonzero;stroke:none" clip-path="url(#clipPath11843)"/>
    <path id="path11844" d="M 115.95 47.07 L 115.95 40.643 C 117.196 34.972 122.79 29.788 129.289 24.129 C 132.537 21.287 136.057 17.763 136.057 13.06 C 136.057 8.853 133.3 5.324 127.975 5.324 C 123.691 5.324 120.725 8.43 119.543 9.745 L 114.427 2.973 C 119.125 -1.098 123.486 -3.04 130.049 -3.04 C 138.617 -3.04 146.704 1.94 146.704 11.891 C 146.704 20.246 141.382 24.189 135.507 29.514 C 133.019 31.793 128.116 36.082 127.497 38.911 L 147.604 38.911 L 147.604 47.07 L 115.95 47.07 Z" style="fill:#231f20;fill-opacity:1;fill-rule:nonzero;stroke:none" clip-path="url(#clipPath11845)"/>
  </g>
</svg>