<?xml version="1.0" encoding="utf-8"?>
<svg viewBox="0 0 60 60" xmlns="http://www.w3.org/2000/svg">
  <g transform="matrix(0.4736680090427398, 0, 0, 0.4736680090427398, 1.030699976017324, -11.097096525856074)">
    <path id="path11824" d="M 118.16 42.426 L 4.158 42.426 C 0.659 42.426 -2.174 39.592 -2.174 36.089 L -2.174 29.761 C -2.174 26.262 0.659 23.428 4.158 23.428 L 118.16 23.428 C 121.655 23.428 124.493 26.262 124.493 29.761 L 124.493 36.089 C 124.493 39.592 121.655 42.426 118.16 42.426" style="fill:#845d2e;fill-opacity:1;fill-rule:nonzero;stroke:none" clip-path="url(#clipPath11825)"/>
    <path id="path11826" d="M 124.493 143.758 L 124.493 137.426 C 124.493 133.927 121.655 131.102 118.16 131.102 L 4.158 131.102 C 0.659 131.102 -2.174 133.927 -2.174 137.426 L -2.174 143.758 C -2.174 147.257 0.659 150.099 4.158 150.099 L 118.16 150.099 C 121.655 150.099 124.493 147.257 124.493 143.758" style="fill:#845d2e;fill-opacity:1;fill-rule:nonzero;stroke:none" clip-path="url(#clipPath11827)"/>
    <path id="path11828" d="M 29.249 71.442 L 29.249 111.46 L 18.466 111.46 L 18.466 71.442 L 3.463 71.442 L 3.463 62.665 L 44.24 62.665 L 44.24 71.442 L 29.249 71.442 Z" style="fill:#231f20;fill-opacity:1;fill-rule:nonzero;stroke:none" clip-path="url(#clipPath11829)"/>
    <path id="path11830" d="M 68.558 111.46 L 68.558 73.107 C 65.588 75.449 60.882 77.732 57.639 79.183 L 54.315 71.72 C 59.431 69.573 65.588 66.33 70.419 62.665 L 78.923 62.665 L 78.923 111.46 L 68.558 111.46 Z" style="fill:#231f20;fill-opacity:1;fill-rule:nonzero;stroke:none" clip-path="url(#clipPath11831)"/>
    <path id="path11832" d="M 99.854 112.633 C 92.873 112.633 89.002 110.91 85.755 108.977 L 89.553 101.436 C 91.631 102.896 95.015 104.62 99.163 104.62 C 104.829 104.62 108.354 101.3 108.354 97.152 C 108.354 91.562 104.07 89.621 99.094 89.621 L 94.051 89.621 L 94.051 81.53 L 99.163 81.53 C 103.933 81.53 106.903 79.042 106.903 75.313 C 106.903 72.206 104.552 69.373 99.436 69.373 C 94.947 69.373 91.977 71.511 90.385 72.898 L 86.865 65.707 C 91.004 62.942 95.501 61.355 101.646 61.355 C 111.606 61.355 117.268 67.295 117.268 73.794 C 117.268 78.837 114.571 82.844 109.395 84.786 L 109.395 84.922 C 114.78 85.955 118.86 90.103 118.86 96.943 C 118.86 105.516 111.188 112.633 99.854 112.633" style="fill:#231f20;fill-opacity:1;fill-rule:nonzero;stroke:none" clip-path="url(#clipPath11833)"/>
  </g>
</svg>