<?xml version="1.0" encoding="utf-8"?>
<svg xmlns="http://www.w3.org/2000/svg" viewBox="0 0 60 60" fill="#00A88F">
  <g transform="matrix(0.21167, 0, 0, 0.21167, 24.543143, 27.675862)">
    <rect width="283.46" height="42.52" rx="14.17" x="-115.95" y="-130.75"></rect>
    <rect width="283.46" height="42.52" rx="14.17" y="110.19" x="-115.95"></rect>
    <path fill="#25303B" d="M -48.89 -23.3 L -48.89 66.25 L -73.02 66.25 L -73.02 -23.3 L -106.58 -23.3 L -106.58 -42.94 L -15.34 -42.94 L -15.34 -23.3 L -48.89 -23.3 Z M 39.07 66.25 L 39.07 -19.59 C 32.42 -14.34 21.91 -9.54 14.64 -5.97 L 7.21 -22.68 C 18.66 -27.48 32.42 -34.74 43.24 -42.94 L 62.27 -42.94 L 62.27 66.24 L 39.07 66.24 L 39.07 66.25 Z M 145.31 43.51 L 145.31 66.24 L 123.65 66.24 L 123.65 43.51 L 74.48 43.51 L 74.48 23.25 L 116.85 -42.94 L 145.31 -42.94 L 145.31 26.49 L 158.15 26.49 L 158.15 43.5 L 145.31 43.5 L 145.31 43.51 Z M 123.65 -23.76 L 123.34 -23.76 C 122.89 -21.92 119.79 -15.26 115.46 -8.44 L 93.19 26.5 L 123.65 26.5 L 123.65 -23.75 L 123.65 -23.76 Z"></path>
  </g>
</svg>