<?xml version="1.0" encoding="utf-8"?>
<svg viewBox="0 0 60 60" xmlns="http://www.w3.org/2000/svg">
  <g transform="matrix(4.085525035858154, 0, 0, 4.0855140686035165, -412.27438661660545, -3892.7959274410896)">
    <path id="path11718" d="M 106.4 958.394 L 106.4 963.033 L 105.15 963.033 L 105.15 958.394 L 103.411 958.394 L 103.411 957.376 L 108.138 957.376 L 108.138 958.394 L 106.4 958.394 Z" style="fill:#231f20;fill-opacity:1;fill-rule:nonzero;stroke:none" clip-path="url(#clipPath11719)"/>
    <path id="path11720" d="M 109.427 963.033 L 109.427 962.288 C 109.571 961.631 110.22 961.03 110.974 960.373 C 111.35 960.044 111.759 959.635 111.759 959.091 C 111.759 958.602 111.439 958.193 110.821 958.193 C 110.325 958.193 109.98 958.554 109.844 958.706 L 109.251 957.921 C 109.796 957.448 110.301 957.224 111.062 957.224 C 112.055 957.224 112.993 957.801 112.993 958.955 C 112.993 959.924 112.376 960.381 111.695 960.998 C 111.406 961.262 110.838 961.76 110.765 962.087 L 113.097 962.087 L 113.097 963.033 L 109.427 963.033 Z" style="fill:#231f20;fill-opacity:1;fill-rule:nonzero;stroke:none" clip-path="url(#clipPath11721)"/>
    <path id="path11722" d="M 114.863 955.032 L 101.645 955.032 C 101.24 955.032 100.911 954.703 100.911 954.298 L 100.911 953.563 C 100.911 953.158 101.24 952.829 101.645 952.829 L 114.863 952.829 C 115.268 952.829 115.597 953.158 115.597 953.563 L 115.597 954.298 C 115.597 954.703 115.268 955.032 114.863 955.032" style="fill:#bb2e9e;fill-opacity:1;fill-rule:nonzero;stroke:none" clip-path="url(#clipPath11723)"/>
    <path id="path11724" d="M 115.597 966.781 L 115.597 966.046 C 115.597 965.64 115.268 965.313 114.863 965.313 L 101.645 965.313 C 101.24 965.313 100.911 965.64 100.911 966.046 L 100.911 966.781 C 100.911 967.186 101.24 967.515 101.645 967.515 L 114.863 967.515 C 115.268 967.515 115.597 967.186 115.597 966.781" style="fill:#bb2e9e;fill-opacity:1;fill-rule:nonzero;stroke:none" clip-path="url(#clipPath11725)"/>
  </g>
</svg>