<?xml version="1.0" encoding="utf-8"?>
<svg viewBox="0 0 60 60" xmlns="http://www.w3.org/2000/svg">
  <g transform="matrix(2.0212230682373047, 0, 0, 2.0212230682373047, -27.18140622363542, -23.08640878711945)">
    <path id="path11728" d="M 29.871 32.337 C 28.235 32.337 27.327 31.933 26.567 31.48 L 27.456 29.713 C 27.943 30.055 28.737 30.459 29.709 30.459 C 31.037 30.459 31.863 29.681 31.863 28.708 C 31.863 27.397 30.859 26.943 29.693 26.943 L 28.511 26.943 L 28.511 25.049 L 29.709 25.049 C 30.827 25.049 31.523 24.464 31.523 23.591 C 31.523 22.863 30.972 22.197 29.773 22.197 C 28.72 22.197 28.024 22.699 27.652 23.024 L 26.825 21.339 C 27.797 20.692 28.851 20.319 30.292 20.319 C 32.625 20.319 33.953 21.711 33.953 23.233 C 33.953 24.417 33.32 25.356 32.105 25.811 L 32.105 25.841 C 33.369 26.085 34.325 27.057 34.325 28.661 C 34.325 30.669 32.528 32.337 29.871 32.337" style="fill:#231f20;fill-opacity:1;fill-rule:nonzero;stroke:none" clip-path="url(#clipPath11729)"/>
    <path id="path11730" d="M 40.529 29.816 C 39.918 29.816 39.613 29.438 39.516 28.926 C 38.978 29.561 38.477 29.877 37.586 29.877 C 36.438 29.877 35.657 29.048 35.657 27.937 C 35.657 26.166 37.513 25.825 38.954 25.825 C 39.222 25.825 39.382 25.812 39.382 25.593 L 39.382 25.164 C 39.382 24.701 39.089 24.261 38.185 24.261 C 37.428 24.261 36.854 24.614 36.573 24.86 L 35.976 23.638 C 36.696 23.174 37.489 22.968 38.613 22.968 C 39.528 22.968 41.006 23.297 41.006 25.177 L 41.006 28.18 C 41.006 28.413 41.03 28.609 41.237 28.609 L 41.518 28.546 L 41.616 29.657 C 41.36 29.72 40.933 29.816 40.529 29.816 M 39.369 26.886 C 39.186 26.874 39.002 26.874 38.857 26.874 C 38.258 26.874 37.354 27.022 37.354 27.802 C 37.354 28.277 37.697 28.62 38.173 28.62 C 38.552 28.62 38.869 28.497 39.089 28.265 C 39.284 28.057 39.369 27.814 39.369 27.497 L 39.369 26.886 Z" style="fill:#231f20;fill-opacity:1;fill-rule:nonzero;stroke:none" clip-path="url(#clipPath11731)"/>
    <path id="path11732" d="M 20.772 22.684 L 20.772 32.061 L 18.245 32.061 L 18.245 22.684 L 14.729 22.684 L 14.729 20.626 L 24.285 20.626 L 24.285 22.684 L 20.772 22.684 Z" style="fill:#231f20;fill-opacity:1;fill-rule:nonzero;stroke:none" clip-path="url(#clipPath11733)"/>
    <path id="path11734" d="M 41.648 15.876 L 14.932 15.876 C 14.114 15.876 13.448 15.21 13.448 14.392 L 13.448 12.906 C 13.448 12.088 14.114 11.422 14.932 11.422 L 41.648 11.422 C 42.468 11.422 43.132 12.088 43.132 12.906 L 43.132 14.392 C 43.132 15.21 42.468 15.876 41.648 15.876" style="fill:#f57f3a;fill-opacity:1;fill-rule:nonzero;stroke:none" clip-path="url(#clipPath11735)"/>
    <path id="path11736" d="M 43.133 39.623 L 43.133 38.138 C 43.133 37.318 42.469 36.655 41.649 36.655 L 14.933 36.655 C 14.114 36.655 13.449 37.318 13.449 38.138 L 13.449 39.623 C 13.449 40.442 14.114 41.107 14.933 41.107 L 41.649 41.107 C 42.469 41.107 43.133 40.442 43.133 39.623" style="fill:#f57f3a;fill-opacity:1;fill-rule:nonzero;stroke:none" clip-path="url(#clipPath11737)"/>
  </g>
</svg>