<?xml version="1.0" encoding="utf-8"?>
<svg viewBox="0 0 60 60" xmlns="http://www.w3.org/2000/svg">
  <g transform="matrix(2.0212910175323486, 0, 0, 2.0212910175323486, -29.670530540276545, -26.19795628039506)">
    <path id="path11770" d="M 31.101 33.875 C 29.465 33.875 28.558 33.471 27.797 33.018 L 28.686 31.251 C 29.173 31.592 29.967 31.996 30.939 31.996 C 32.267 31.996 33.093 31.219 33.093 30.246 C 33.093 28.935 32.089 28.48 30.923 28.48 L 29.741 28.48 L 29.741 26.587 L 30.939 26.587 C 32.057 26.587 32.753 26.002 32.753 25.128 C 32.753 24.4 32.202 23.735 31.003 23.735 C 29.95 23.735 29.254 24.236 28.882 24.562 L 28.055 22.876 C 29.027 22.23 30.081 21.856 31.522 21.856 C 33.855 21.856 35.183 23.248 35.183 24.771 C 35.183 25.955 34.551 26.894 33.337 27.348 L 33.337 27.379 C 34.601 27.623 35.555 28.594 35.555 30.199 C 35.555 32.207 33.758 33.875 31.101 33.875" style="fill:#231f20;fill-opacity:1;fill-rule:nonzero;stroke:none" clip-path="url(#clipPath11771)"/>
    <path id="path11772" d="M 40.16 31.439 C 39.672 31.439 39.097 31.245 38.768 30.939 L 38.768 31.231 L 37.106 31.231 L 37.106 22.198 L 38.829 22.198 L 38.829 25.567 C 39.269 24.933 39.769 24.506 40.6 24.506 C 42.308 24.506 43.017 26.325 43.017 27.899 C 43.017 29.365 42.248 31.439 40.16 31.439 M 39.94 25.994 C 39.598 25.994 39.329 26.141 39.146 26.325 C 38.853 26.606 38.817 26.789 38.817 27.166 L 38.817 29.377 C 38.817 29.829 39.085 30.231 39.866 30.231 C 40.966 30.231 41.234 29.046 41.234 28.157 C 41.234 27.277 41.026 25.994 39.94 25.994" style="fill:#231f20;fill-opacity:1;fill-rule:nonzero;stroke:none" clip-path="url(#clipPath11773)"/>
    <path id="path11774" d="M 22.001 24.221 L 22.001 33.6 L 19.475 33.6 L 19.475 24.221 L 15.959 24.221 L 15.959 22.164 L 25.515 22.164 L 25.515 24.221 L 22.001 24.221 Z" style="fill:#231f20;fill-opacity:1;fill-rule:nonzero;stroke:none" clip-path="url(#clipPath11775)"/>
    <path id="path11776" d="M 42.879 17.413 L 16.163 17.413 C 15.344 17.413 14.679 16.748 14.679 15.929 L 14.679 14.445 C 14.679 13.625 15.344 12.961 16.163 12.961 L 42.879 12.961 C 43.699 12.961 44.363 13.625 44.363 14.445 L 44.363 15.929 C 44.363 16.748 43.699 17.413 42.879 17.413" style="fill:#0d8c5d;fill-opacity:1;fill-rule:nonzero;stroke:none" clip-path="url(#clipPath11777)"/>
    <path id="path11778" d="M 44.363 41.161 L 44.363 39.675 C 44.363 38.855 43.699 38.193 42.879 38.193 L 16.163 38.193 C 15.343 38.193 14.679 38.855 14.679 39.675 L 14.679 41.161 C 14.679 41.979 15.343 42.645 16.163 42.645 L 42.879 42.645 C 43.699 42.645 44.363 41.979 44.363 41.161" style="fill:#0d8c5d;fill-opacity:1;fill-rule:nonzero;stroke:none" clip-path="url(#clipPath11779)"/>
  </g>
</svg>