<?xml version="1.0" encoding="utf-8"?>
<svg viewBox="0 0 60 60" xmlns="http://www.w3.org/2000/svg">
  <g transform="matrix(2.0211551189422607, 0, 0, 2.0211551189422607, -98.54543377865427, -45.02222857640855)">
    <path id="path11740" d="M 59.504 33.524 L 59.504 42.901 L 56.977 42.901 L 56.977 33.524 L 53.461 33.524 L 53.461 31.466 L 63.017 31.466 L 63.017 33.524 L 59.504 33.524 Z" style="fill:#231f20;fill-opacity:1;fill-rule:nonzero;stroke:none" clip-path="url(#clipPath11741)"/>
    <path id="path11742" d="M 72.393 40.52 L 72.393 42.902 L 70.125 42.902 L 70.125 40.52 L 64.975 40.52 L 64.975 38.399 L 69.411 31.467 L 72.393 31.467 L 72.393 38.739 L 73.737 38.739 L 73.737 40.52 L 72.393 40.52 Z M 70.125 33.475 L 70.093 33.475 C 70.045 33.67 69.719 34.367 69.266 35.079 L 66.934 38.739 L 70.125 38.739 L 70.125 33.475 Z" style="fill:#231f20;fill-opacity:1;fill-rule:nonzero;stroke:none" clip-path="url(#clipPath11743)"/>
    <path id="path11744" d="M 76.957 26.729 L 50.243 26.729 C 49.423 26.729 48.757 26.064 48.757 25.245 L 48.757 23.761 C 48.757 22.941 49.423 22.277 50.243 22.277 L 76.957 22.277 C 77.777 22.277 78.443 22.941 78.443 23.761 L 78.443 25.245 C 78.443 26.064 77.777 26.729 76.957 26.729" style="fill:#dbac27;fill-opacity:1;fill-rule:nonzero;stroke:none" clip-path="url(#clipPath11745)"/>
    <path id="path11746" d="M 78.442 50.476 L 78.442 48.991 C 78.442 48.171 77.778 47.508 76.957 47.508 L 50.242 47.508 C 49.423 47.508 48.757 48.171 48.757 48.991 L 48.757 50.476 C 48.757 51.295 49.423 51.96 50.242 51.96 L 76.957 51.96 C 77.778 51.96 78.442 51.295 78.442 50.476" style="fill:#dbac27;fill-opacity:1;fill-rule:nonzero;stroke:none" clip-path="url(#clipPath11747)"/>
  </g>
</svg>