<?xml version="1.0" encoding="utf-8"?>
<svg viewBox="0 0 60 60" xmlns="http://www.w3.org/2000/svg">
  <g transform="matrix(0.4736490249633789, 0, 0, 0.4736490249633789, 13.378707985421336, 24.24255961360454)">
    <path id="path11750" d="M 19.064 -3.185 L 19.064 36.833 L 8.281 36.833 L 8.281 -3.185 L -6.722 -3.185 L -6.722 -11.963 L 34.055 -11.963 L 34.055 -3.185 L 19.064 -3.185 Z" style="fill:#231f20;fill-opacity:1;fill-rule:nonzero;stroke:none" clip-path="url(#clipPath11751)"/>
    <path id="path11752" d="M 58.374 38.006 C 52.703 38.006 48.354 36.76 44.621 34.486 L 48.559 26.877 C 51.256 28.751 54.021 29.992 57.823 29.992 C 61.621 29.992 66.392 27.709 66.392 21.974 C 66.392 18.454 64.045 13.611 55.058 13.474 C 52.293 13.474 49.041 13.402 47.454 13.402 L 49.391 -11.963 L 75.033 -11.963 L 75.033 -3.804 L 57.473 -3.804 L 56.782 5.452 L 58.169 5.524 C 71.504 6.147 76.897 13.683 76.897 21.001 C 76.897 30.334 69.502 38.006 58.374 38.006" style="fill:#231f20;fill-opacity:1;fill-rule:nonzero;stroke:none" clip-path="url(#clipPath11753)"/>
    <path id="path11754" d="M 92.089 -32.18 L -21.905 -32.18 C -25.404 -32.18 -28.246 -35.018 -28.246 -38.513 L -28.246 -44.845 C -28.246 -48.344 -25.404 -51.178 -21.905 -51.178 L 92.089 -51.178 C 95.588 -51.178 98.43 -48.344 98.43 -44.845 L 98.43 -38.513 C 98.43 -35.018 95.588 -32.18 92.089 -32.18" style="fill:#5e2590;fill-opacity:1;fill-rule:nonzero;stroke:none" clip-path="url(#clipPath11755)"/>
    <path id="path11756" d="M 98.425 69.157 L 98.425 62.815 C 98.425 59.316 95.592 56.492 92.089 56.492 L -21.909 56.492 C -25.408 56.492 -28.246 59.316 -28.246 62.815 L -28.246 69.157 C -28.246 72.647 -25.408 75.489 -21.909 75.489 L 92.089 75.489 C 95.592 75.489 98.425 72.647 98.425 69.157" style="fill:#5e2590;fill-opacity:1;fill-rule:nonzero;stroke:none" clip-path="url(#clipPath11757)"/>
  </g>
</svg>