<?xml version="1.0" encoding="utf-8"?>
<svg viewBox="0 0 60 60" xmlns="http://www.w3.org/2000/svg">
  <g transform="matrix(0.22434398531913757, 0, 0, 0.22434398531913757, -0.6322019743338387, 35.045166276731834)">
    <path id="path11760" d="M 100.667 -54.876 L 100.667 29.611 L 77.901 29.611 L 77.901 -54.876 L 46.224 -54.876 L 46.224 -73.408 L 132.316 -73.408 L 132.316 -54.876 L 100.667 -54.876 Z" style="fill:#231f20;fill-opacity:1;fill-rule:nonzero;stroke:none" clip-path="url(#clipPath11761)"/>
    <path id="path11762" d="M 191.533 32.089 C 163.361 32.089 153.298 12.548 153.298 -14.741 C 153.298 -50.507 170.082 -76.174 203.065 -76.174 C 208.903 -76.174 214.155 -75.453 218.533 -74.435 L 215.326 -56.922 C 212.542 -58.093 207.146 -59.39 201.164 -59.39 C 186.713 -59.39 176.217 -47.858 174.749 -27.155 C 178.245 -30.218 184.974 -34.155 196.065 -34.155 C 213.128 -34.155 226.84 -22.921 226.84 -3.659 C 226.84 16.909 213.128 32.089 191.533 32.089 M 189.488 -17.966 C 182.92 -17.966 177.668 -15.479 175.632 -12.272 C 174.461 -10.515 174.461 -6.434 174.461 -3.371 C 174.461 6.413 180.154 15.89 190.659 15.89 C 200.876 15.89 206.119 7.575 206.119 -1.326 C 206.119 -10.948 199.704 -17.966 189.488 -17.966" style="fill:#231f20;fill-opacity:1;fill-rule:nonzero;stroke:none" clip-path="url(#clipPath11763)"/>
    <path id="path11764" d="M 256.885 -116.094 L 16.206 -116.094 C 8.818 -116.094 2.827 -122.085 2.827 -129.463 L 2.827 -142.833 C 2.827 -150.22 8.818 -156.202 16.206 -156.202 L 256.885 -156.202 C 264.273 -156.202 270.264 -150.22 270.264 -142.833 L 270.264 -129.463 C 270.264 -122.085 264.273 -116.094 256.885 -116.094" style="fill:#ed1a2a;fill-opacity:1;fill-rule:nonzero;stroke:none" clip-path="url(#clipPath11765)"/>
    <path id="path11766" d="M 270.255 97.856 L 270.255 84.468 C 270.255 77.081 264.273 71.117 256.876 71.117 L 16.197 71.117 C 8.809 71.117 2.818 77.081 2.818 84.468 L 2.818 97.856 C 2.818 105.225 8.809 111.225 16.197 111.225 L 256.876 111.225 C 264.273 111.225 270.255 105.225 270.255 97.856" style="fill:#ed1a2a;fill-opacity:1;fill-rule:nonzero;stroke:none" clip-path="url(#clipPath11767)"/>
  </g>
</svg>