<?xml version="1.0" encoding="utf-8"?>
<svg viewBox="0 0 60 60" xmlns="http://www.w3.org/2000/svg">
  <g transform="matrix(0.47365304827690125, 0, 0, 0.47365304827690125, -12.429602715593603, 6.303850220917543)">
    <path id="path11782" d="M 72.933 34.69 L 72.933 74.704 L 62.15 74.704 L 62.15 34.69 L 47.147 34.69 L 47.147 25.908 L 87.924 25.908 L 87.924 34.69 L 72.933 34.69 Z" style="fill:#231f20;fill-opacity:1;fill-rule:nonzero;stroke:none" clip-path="url(#clipPath11783)"/>
    <path id="path11784" d="M 114.803 74.704 L 103.674 74.704 C 103.674 68.282 105.402 64.13 109.682 56.18 L 121.571 34.063 L 97.862 34.063 L 97.862 25.913 L 132.008 25.913 L 132.008 33.858 C 121.298 52.446 114.803 67.031 114.803 74.704" style="fill:#231f20;fill-opacity:1;fill-rule:nonzero;stroke:none" clip-path="url(#clipPath11785)"/>
    <path id="path11786" d="M 146.576 5.695 L 32.583 5.695 C 29.084 5.695 26.242 2.861 26.242 -0.638 L 26.242 -6.97 C 26.242 -10.469 29.084 -13.303 32.583 -13.303 L 146.576 -13.303 C 150.075 -13.303 152.917 -10.469 152.917 -6.97 L 152.917 -0.638 C 152.917 2.861 150.075 5.695 146.576 5.695" style="fill:#845d2e;fill-opacity:1;fill-rule:nonzero;stroke:none" clip-path="url(#clipPath11787)"/>
    <path id="path11788" d="M 152.913 107.028 L 152.913 100.691 C 152.913 97.192 150.08 94.363 146.576 94.363 L 32.579 94.363 C 29.08 94.363 26.242 97.192 26.242 100.691 L 26.242 107.028 C 26.242 110.522 29.08 113.36 32.579 113.36 L 146.576 113.36 C 150.08 113.36 152.913 110.522 152.913 107.028" style="fill:#845d2e;fill-opacity:1;fill-rule:nonzero;stroke:none" clip-path="url(#clipPath11789)"/>
  </g>
</svg>