<?xml version="1.0" encoding="utf-8"?>
<svg viewBox="0 0 60 60" xmlns="http://www.w3.org/2000/svg">
  <g transform="matrix(0.47364902496337885, 0, 0, 0.47364902496337885, 10.764630397890713, 17.717088831343425)">
    <path id="path11792" d="M 23.931 10.594 L 23.931 50.608 L 13.148 50.608 L 13.148 10.594 L -1.856 10.594 L -1.856 1.812 L 38.921 1.812 L 38.921 10.594 L 23.931 10.594 Z" style="fill:#231f20;fill-opacity:1;fill-rule:nonzero;stroke:none" clip-path="url(#clipPath11793)"/>
    <path id="path11794" d="M 65.659 51.922 C 54.808 51.922 48.655 45.423 48.655 38.028 C 48.655 31.538 52.316 27.458 57.018 25.039 C 52.802 22.41 50.178 19.095 50.178 14.051 C 50.178 5.96 57.501 0.362 65.864 0.362 C 74.433 0.362 81.555 4.578 81.555 12.941 C 81.555 17.499 79.208 21.382 74.642 24.134 C 79.131 26.28 83.074 30.428 83.074 36.855 C 83.074 46.119 75.679 51.922 65.659 51.922 M 64.827 28.423 C 61.648 29.669 58.474 33.125 58.474 36.923 C 58.474 40.934 61.098 44.736 65.796 44.736 C 70.426 44.736 72.986 41.489 72.986 37.618 C 72.986 33.193 68.971 30.501 64.827 28.423 M 66.005 7.411 C 62.199 7.411 59.784 9.762 59.784 13.146 C 59.784 17.157 63.795 19.645 66.901 20.959 C 69.462 19.786 72.227 16.607 72.227 13.569 C 72.227 10.176 70.012 7.411 66.005 7.411" style="fill:#231f20;fill-opacity:1;fill-rule:nonzero;stroke:none" clip-path="url(#clipPath11795)"/>
    <path id="path11796" d="M 97.612 -18.401 L -16.386 -18.401 C -19.885 -18.401 -22.722 -21.235 -22.722 -24.734 L -22.722 -31.066 C -22.722 -34.565 -19.885 -37.399 -16.386 -37.399 L 97.612 -37.399 C 101.111 -37.399 103.949 -34.565 103.949 -31.066 L 103.949 -24.734 C 103.949 -21.235 101.111 -18.401 97.612 -18.401" style="fill:#8f9828;fill-opacity:1;fill-rule:nonzero;stroke:none" clip-path="url(#clipPath11797)"/>
    <path id="path11798" d="M 103.945 82.932 L 103.945 76.595 C 103.945 73.096 101.111 70.267 97.608 70.267 L -16.39 70.267 C -19.88 70.267 -22.727 73.096 -22.727 76.595 L -22.727 82.932 C -22.727 86.426 -19.88 89.264 -16.39 89.264 L 97.608 89.264 C 101.111 89.264 103.945 86.426 103.945 82.932" style="fill:#8f9828;fill-opacity:1;fill-rule:nonzero;stroke:none" clip-path="url(#clipPath11799)"/>
  </g>
</svg>