<?xml version="1.0" encoding="utf-8"?>
<svg viewBox="0 0 60 60" xmlns="http://www.w3.org/2000/svg">
  <g transform="matrix(0.47365304827690125, 0, 0, 0.47365304827690125, 15.057903401985046, 19.513084557004902)">
    <path id="path11802" d="M 88.548 -22.195 L -25.45 -22.195 C -28.949 -22.195 -31.787 -25.029 -31.787 -28.536 L -31.787 -34.86 C -31.787 -38.36 -28.949 -41.193 -25.45 -41.193 L 88.548 -41.193 C 92.047 -41.193 94.884 -38.36 94.884 -34.86 L 94.884 -28.536 C 94.884 -25.029 92.047 -22.195 88.548 -22.195" style="fill:#588ed2;fill-opacity:1;fill-rule:nonzero;stroke:none" clip-path="url(#clipPath11803)"/>
    <path id="path11804" d="M 94.88 79.137 L 94.88 72.805 C 94.88 69.306 92.047 66.476 88.543 66.476 L -25.454 66.476 C -28.953 66.476 -31.791 69.306 -31.791 72.805 L -31.791 79.137 C -31.791 82.636 -28.953 85.474 -25.454 85.474 L 88.543 85.474 C 92.047 85.474 94.88 82.636 94.88 79.137" style="fill:#588ed2;fill-opacity:1;fill-rule:nonzero;stroke:none" clip-path="url(#clipPath11805)"/>
    <path id="path11806" d="M 14.969 6.813 L 14.969 46.835 L 4.19 46.835 L 4.19 6.813 L -10.814 6.813 L -10.814 -1.965 L 29.963 -1.965 L 29.963 6.813 L 14.969 6.813 Z" style="fill:#231f20;fill-opacity:1;fill-rule:nonzero;stroke:none" clip-path="url(#clipPath11807)"/>
    <path id="path11808" d="M 50.339 48.145 C 47.574 48.145 45.091 47.799 43.012 47.313 L 44.536 39.017 C 45.846 39.576 48.402 40.195 51.24 40.195 C 58.08 40.195 63.064 34.741 63.747 24.918 C 62.091 26.378 58.908 28.243 53.659 28.243 C 45.573 28.243 39.07 22.917 39.07 13.79 C 39.07 4.052 45.573 -3.143 55.797 -3.143 C 69.14 -3.143 73.907 6.126 73.907 19.043 C 73.907 35.979 65.957 48.145 50.339 48.145 M 56.219 4.534 C 51.376 4.534 48.884 8.477 48.884 12.693 C 48.884 17.25 51.927 20.566 56.77 20.566 C 59.876 20.566 62.368 19.397 63.329 17.869 C 63.888 17.041 63.888 15.112 63.888 13.653 C 63.888 9.023 61.191 4.534 56.219 4.534" style="fill:#231f20;fill-opacity:1;fill-rule:nonzero;stroke:none" clip-path="url(#clipPath11809)"/>
  </g>
</svg>