<?xml version="1.0" encoding="utf-8"?>
<svg viewBox="0 0 1000 270" xmlns="http://www.w3.org/2000/svg">
  <g transform="matrix(4.26717710494995, 0, 0, 4.26717710494995, 294.1662924749129, 24.364898863173273)">
    <path id="path11708" d="M -56.894 5.915 L -56.894 15.292 L -59.421 15.292 L -59.421 5.915 L -62.937 5.915 L -62.937 3.858 L -53.381 3.858 L -53.381 5.915 L -56.894 5.915 Z" style="fill:#231f20;fill-opacity:1;fill-rule:nonzero;stroke:none" clip-path="url(#clipPath11709)"/>
    <path id="path11710" d="M -47.682 15.293 L -47.682 6.305 C -48.378 6.854 -49.481 7.389 -50.241 7.729 L -51.02 5.98 C -49.821 5.477 -48.378 4.717 -47.245 3.857 L -45.253 3.857 L -45.253 15.293 L -47.682 15.293 Z" style="fill:#231f20;fill-opacity:1;fill-rule:nonzero;stroke:none" clip-path="url(#clipPath11711)"/>
    <path id="path11712" d="M -40.737 -0.88 L -67.453 -0.88 C -68.272 -0.88 -68.937 -1.545 -68.937 -2.364 L -68.937 -3.849 C -68.937 -4.668 -68.272 -5.333 -67.453 -5.333 L -40.737 -5.333 C -39.917 -5.333 -39.253 -4.668 -39.253 -3.849 L -39.253 -2.364 C -39.253 -1.545 -39.917 -0.88 -40.737 -0.88" style="fill:#196abd;fill-opacity:1;fill-rule:nonzero;stroke:none" clip-path="url(#clipPath11713)"/>
    <path id="path11714" d="M -39.253 22.868 L -39.253 21.382 C -39.253 20.562 -39.917 19.9 -40.737 19.9 L -67.453 19.9 C -68.273 19.9 -68.937 20.562 -68.937 21.382 L -68.937 22.868 C -68.937 23.686 -68.273 24.352 -67.453 24.352 L -40.737 24.352 C -39.917 24.352 -39.253 23.686 -39.253 22.868" style="fill:#196abd;fill-opacity:1;fill-rule:nonzero;stroke:none" clip-path="url(#clipPath11715)"/>
    <path id="path11718" d="M -23.732 5.915 L -23.732 15.292 L -26.258 15.292 L -26.258 5.915 L -29.774 5.915 L -29.774 3.858 L -20.218 3.858 L -20.218 5.915 L -23.732 5.915 Z" style="fill:#231f20;fill-opacity:1;fill-rule:nonzero;stroke:none" clip-path="url(#clipPath11719)"/>
    <path id="path11720" d="M -17.613 15.293 L -17.613 13.786 C -17.322 12.458 -16.01 11.244 -14.487 9.916 C -13.726 9.252 -12.901 8.425 -12.901 7.324 C -12.901 6.337 -13.547 5.51 -14.795 5.51 C -15.799 5.51 -16.495 6.238 -16.771 6.546 L -17.97 4.96 C -16.869 4.004 -15.847 3.55 -14.309 3.55 C -12.301 3.55 -10.406 4.717 -10.406 7.049 C -10.406 9.008 -11.653 9.932 -13.03 11.18 C -13.613 11.713 -14.762 12.718 -14.909 13.381 L -10.195 13.381 L -10.195 15.293 L -17.613 15.293 Z" style="fill:#231f20;fill-opacity:1;fill-rule:nonzero;stroke:none" clip-path="url(#clipPath11721)"/>
    <path id="path11722" d="M -6.627 -0.88 L -33.343 -0.88 C -34.161 -0.88 -34.827 -1.545 -34.827 -2.364 L -34.827 -3.849 C -34.827 -4.668 -34.161 -5.333 -33.343 -5.333 L -6.627 -5.333 C -5.807 -5.333 -5.143 -4.668 -5.143 -3.849 L -5.143 -2.364 C -5.143 -1.545 -5.807 -0.88 -6.627 -0.88" style="fill:#bb2e9e;fill-opacity:1;fill-rule:nonzero;stroke:none" clip-path="url(#clipPath11723)"/>
    <path id="path11724" d="M -5.143 22.868 L -5.143 21.382 C -5.143 20.562 -5.807 19.9 -6.627 19.9 L -33.343 19.9 C -34.163 19.9 -34.827 20.562 -34.827 21.382 L -34.827 22.868 C -34.827 23.686 -34.163 24.352 -33.343 24.352 L -6.627 24.352 C -5.807 24.352 -5.143 23.686 -5.143 22.868" style="fill:#bb2e9e;fill-opacity:1;fill-rule:nonzero;stroke:none" clip-path="url(#clipPath11725)"/>
    <path id="path11728" d="M 15.706 15.582 C 14.07 15.582 13.162 15.178 12.402 14.725 L 13.291 12.958 C 13.778 13.299 14.572 13.703 15.544 13.703 C 16.872 13.703 17.698 12.926 17.698 11.953 C 17.698 10.642 16.694 10.187 15.528 10.187 L 14.346 10.187 L 14.346 8.294 L 15.544 8.294 C 16.662 8.294 17.358 7.709 17.358 6.835 C 17.358 6.107 16.807 5.442 15.608 5.442 C 14.555 5.442 13.859 5.943 13.487 6.269 L 12.66 4.583 C 13.632 3.937 14.686 3.563 16.127 3.563 C 18.46 3.563 19.788 4.955 19.788 6.478 C 19.788 7.662 19.155 8.601 17.94 9.055 L 17.94 9.086 C 19.204 9.33 20.16 10.302 20.16 11.906 C 20.16 13.914 18.363 15.582 15.706 15.582" style="fill:#231f20;fill-opacity:1;fill-rule:nonzero;stroke:none" clip-path="url(#clipPath11729)"/>
    <path id="path11730" d="M 26.364 13.061 C 25.753 13.061 25.448 12.683 25.351 12.171 C 24.813 12.806 24.312 13.122 23.421 13.122 C 22.273 13.122 21.492 12.293 21.492 11.182 C 21.492 9.411 23.348 9.07 24.789 9.07 C 25.057 9.07 25.217 9.057 25.217 8.838 L 25.217 8.409 C 25.217 7.946 24.924 7.506 24.02 7.506 C 23.263 7.506 22.689 7.859 22.408 8.105 L 21.811 6.883 C 22.531 6.419 23.324 6.213 24.448 6.213 C 25.363 6.213 26.841 6.542 26.841 8.422 L 26.841 11.425 C 26.841 11.658 26.865 11.854 27.072 11.854 L 27.353 11.791 L 27.451 12.902 C 27.195 12.965 26.768 13.061 26.364 13.061 M 25.204 10.131 C 25.021 10.119 24.837 10.119 24.692 10.119 C 24.093 10.119 23.189 10.267 23.189 11.047 C 23.189 11.522 23.532 11.865 24.008 11.865 C 24.387 11.865 24.704 11.742 24.924 11.51 C 25.119 11.302 25.204 11.059 25.204 10.742 L 25.204 10.131 Z" style="fill:#231f20;fill-opacity:1;fill-rule:nonzero;stroke:none" clip-path="url(#clipPath11731)"/>
    <path id="path11732" d="M 6.607 5.928 L 6.607 15.306 L 4.08 15.306 L 4.08 5.928 L 0.564 5.928 L 0.564 3.871 L 10.12 3.871 L 10.12 5.928 L 6.607 5.928 Z" style="fill:#231f20;fill-opacity:1;fill-rule:nonzero;stroke:none" clip-path="url(#clipPath11733)"/>
    <path id="path11734" d="M 27.483 -0.88 L 0.767 -0.88 C -0.051 -0.88 -0.717 -1.545 -0.717 -2.364 L -0.717 -3.849 C -0.717 -4.668 -0.051 -5.333 0.767 -5.333 L 27.483 -5.333 C 28.303 -5.333 28.967 -4.668 28.967 -3.849 L 28.967 -2.364 C 28.967 -1.545 28.303 -0.88 27.483 -0.88" style="fill:#f57f3a;fill-opacity:1;fill-rule:nonzero;stroke:none" clip-path="url(#clipPath11735)"/>
    <path id="path11736" d="M 28.968 22.868 L 28.968 21.382 C 28.968 20.562 28.304 19.9 27.484 19.9 L 0.768 19.9 C -0.051 19.9 -0.716 20.562 -0.716 21.382 L -0.716 22.868 C -0.716 23.686 -0.051 24.352 0.768 24.352 L 27.484 24.352 C 28.304 24.352 28.968 23.686 28.968 22.868" style="fill:#f57f3a;fill-opacity:1;fill-rule:nonzero;stroke:none" clip-path="url(#clipPath11737)"/>
    <path id="path11740" d="M 78.25 5.915 L 78.25 15.293 L 75.724 15.293 L 75.724 5.915 L 72.208 5.915 L 72.208 3.858 L 81.764 3.858 L 81.764 5.915 L 78.25 5.915 Z" style="fill:#231f20;fill-opacity:1;fill-rule:nonzero;stroke:none" clip-path="url(#clipPath11741)"/>
    <path id="path11742" d="M 91.14 12.912 L 91.14 15.293 L 88.872 15.293 L 88.872 12.912 L 83.722 12.912 L 83.722 10.79 L 88.158 3.858 L 91.14 3.858 L 91.14 11.13 L 92.484 11.13 L 92.484 12.912 L 91.14 12.912 Z M 88.872 5.866 L 88.84 5.866 C 88.792 6.061 88.466 6.758 88.013 7.47 L 85.681 11.13 L 88.872 11.13 L 88.872 5.866 Z" style="fill:#231f20;fill-opacity:1;fill-rule:nonzero;stroke:none" clip-path="url(#clipPath11743)"/>
    <path id="path11744" d="M 95.704 -0.88 L 68.989 -0.88 C 68.169 -0.88 67.504 -1.545 67.504 -2.364 L 67.504 -3.848 C 67.504 -4.668 68.169 -5.332 68.989 -5.332 L 95.704 -5.332 C 96.524 -5.332 97.189 -4.668 97.189 -3.848 L 97.189 -2.364 C 97.189 -1.545 96.524 -0.88 95.704 -0.88" style="fill:#dbac27;fill-opacity:1;fill-rule:nonzero;stroke:none" clip-path="url(#clipPath11745)"/>
    <path id="path11746" d="M 97.189 22.868 L 97.189 21.382 C 97.189 20.562 96.525 19.9 95.703 19.9 L 68.989 19.9 C 68.17 19.9 67.503 20.562 67.503 21.382 L 67.503 22.868 C 67.503 23.686 68.17 24.352 68.989 24.352 L 95.703 24.352 C 96.525 24.352 97.189 23.686 97.189 22.868" style="fill:#dbac27;fill-opacity:1;fill-rule:nonzero;stroke:none" clip-path="url(#clipPath11747)"/>
    <path id="path11750" d="M 112.701 5.915 L 112.701 15.293 L 110.174 15.293 L 110.174 5.915 L 106.658 5.915 L 106.658 3.858 L 116.214 3.858 L 116.214 5.915 L 112.701 5.915 Z" style="fill:#231f20;fill-opacity:1;fill-rule:nonzero;stroke:none" clip-path="url(#clipPath11751)"/>
    <path id="path11752" d="M 121.913 15.568 C 120.584 15.568 119.565 15.276 118.69 14.743 L 119.613 12.96 C 120.245 13.399 120.893 13.69 121.784 13.69 C 122.674 13.69 123.792 13.155 123.792 11.811 C 123.792 10.986 123.242 9.851 121.136 9.819 C 120.488 9.819 119.726 9.802 119.354 9.802 L 119.808 3.858 L 125.817 3.858 L 125.817 5.77 L 121.702 5.77 L 121.54 7.939 L 121.865 7.956 C 124.99 8.102 126.254 9.868 126.254 11.583 C 126.254 13.77 124.521 15.568 121.913 15.568" style="fill:#231f20;fill-opacity:1;fill-rule:nonzero;stroke:none" clip-path="url(#clipPath11753)"/>
    <path id="path11754" d="M 129.814 -0.88 L 103.1 -0.88 C 102.28 -0.88 101.614 -1.545 101.614 -2.364 L 101.614 -3.848 C 101.614 -4.668 102.28 -5.332 103.1 -5.332 L 129.814 -5.332 C 130.634 -5.332 131.3 -4.668 131.3 -3.848 L 131.3 -2.364 C 131.3 -1.545 130.634 -0.88 129.814 -0.88" style="fill:#5e2590;fill-opacity:1;fill-rule:nonzero;stroke:none" clip-path="url(#clipPath11755)"/>
    <path id="path11756" d="M 131.299 22.868 L 131.299 21.382 C 131.299 20.562 130.635 19.9 129.814 19.9 L 103.099 19.9 C 102.279 19.9 101.614 20.562 101.614 21.382 L 101.614 22.868 C 101.614 23.686 102.279 24.352 103.099 24.352 L 129.814 24.352 C 130.635 24.352 131.299 23.686 131.299 22.868" style="fill:#5e2590;fill-opacity:1;fill-rule:nonzero;stroke:none" clip-path="url(#clipPath11757)"/>
    <path id="path11760" d="M 146.585 5.915 L 146.585 15.293 L 144.058 15.293 L 144.058 5.915 L 140.542 5.915 L 140.542 3.858 L 150.098 3.858 L 150.098 5.915 L 146.585 5.915 Z" style="fill:#231f20;fill-opacity:1;fill-rule:nonzero;stroke:none" clip-path="url(#clipPath11761)"/>
    <path id="path11762" d="M 156.671 15.568 C 153.544 15.568 152.427 13.399 152.427 10.37 C 152.427 6.4 154.29 3.551 157.951 3.551 C 158.599 3.551 159.182 3.631 159.668 3.744 L 159.312 5.688 C 159.003 5.558 158.404 5.414 157.74 5.414 C 156.136 5.414 154.971 6.694 154.808 8.992 C 155.196 8.652 155.943 8.215 157.174 8.215 C 159.068 8.215 160.59 9.462 160.59 11.6 C 160.59 13.883 159.068 15.568 156.671 15.568 M 156.444 10.012 C 155.715 10.012 155.132 10.288 154.906 10.644 C 154.776 10.839 154.776 11.292 154.776 11.632 C 154.776 12.718 155.408 13.77 156.574 13.77 C 157.708 13.77 158.29 12.847 158.29 11.859 C 158.29 10.791 157.578 10.012 156.444 10.012" style="fill:#231f20;fill-opacity:1;fill-rule:nonzero;stroke:none" clip-path="url(#clipPath11763)"/>
    <path id="path11764" d="M 163.925 -0.88 L 137.21 -0.88 C 136.39 -0.88 135.725 -1.545 135.725 -2.364 L 135.725 -3.848 C 135.725 -4.668 136.39 -5.332 137.21 -5.332 L 163.925 -5.332 C 164.745 -5.332 165.41 -4.668 165.41 -3.848 L 165.41 -2.364 C 165.41 -1.545 164.745 -0.88 163.925 -0.88" style="fill:#ed1a2a;fill-opacity:1;fill-rule:nonzero;stroke:none" clip-path="url(#clipPath11765)"/>
    <path id="path11766" d="M 165.409 22.868 L 165.409 21.382 C 165.409 20.562 164.745 19.9 163.924 19.9 L 137.209 19.9 C 136.389 19.9 135.724 20.562 135.724 21.382 L 135.724 22.868 C 135.724 23.686 136.389 24.352 137.209 24.352 L 163.924 24.352 C 164.745 24.352 165.409 23.686 165.409 22.868" style="fill:#ed1a2a;fill-opacity:1;fill-rule:nonzero;stroke:none" clip-path="url(#clipPath11767)"/>
    <path id="path11770" d="M 49.816 15.582 C 48.18 15.582 47.273 15.178 46.512 14.725 L 47.401 12.958 C 47.888 13.3 48.683 13.704 49.655 13.704 C 50.983 13.704 51.808 12.926 51.808 11.953 C 51.808 10.642 50.804 10.188 49.639 10.188 L 48.456 10.188 L 48.456 8.294 L 49.655 8.294 C 50.772 8.294 51.468 7.709 51.468 6.836 C 51.468 6.108 50.917 5.442 49.719 5.442 C 48.665 5.442 47.969 5.944 47.597 6.269 L 46.771 4.584 C 47.743 3.937 48.796 3.564 50.237 3.564 C 52.571 3.564 53.899 4.956 53.899 6.478 C 53.899 7.662 53.267 8.601 52.052 9.056 L 52.052 9.086 C 53.316 9.33 54.271 10.301 54.271 11.906 C 54.271 13.914 52.473 15.582 49.816 15.582" style="fill:#231f20;fill-opacity:1;fill-rule:nonzero;stroke:none" clip-path="url(#clipPath11771)"/>
    <path id="path11772" d="M 58.875 13.146 C 58.387 13.146 57.812 12.952 57.483 12.646 L 57.483 12.938 L 55.822 12.938 L 55.822 3.905 L 57.544 3.905 L 57.544 7.274 C 57.984 6.64 58.484 6.213 59.315 6.213 C 61.023 6.213 61.732 8.032 61.732 9.606 C 61.732 11.072 60.963 13.146 58.875 13.146 M 58.655 7.701 C 58.314 7.701 58.044 7.848 57.862 8.032 C 57.568 8.313 57.532 8.496 57.532 8.873 L 57.532 11.084 C 57.532 11.536 57.8 11.938 58.582 11.938 C 59.682 11.938 59.95 10.753 59.95 9.864 C 59.95 8.984 59.742 7.701 58.655 7.701" style="fill:#231f20;fill-opacity:1;fill-rule:nonzero;stroke:none" clip-path="url(#clipPath11773)"/>
    <path id="path11774" d="M 40.717 5.928 L 40.717 15.307 L 38.19 15.307 L 38.19 5.928 L 34.674 5.928 L 34.674 3.871 L 44.23 3.871 L 44.23 5.928 L 40.717 5.928 Z" style="fill:#231f20;fill-opacity:1;fill-rule:nonzero;stroke:none" clip-path="url(#clipPath11775)"/>
    <path id="path11776" d="M 61.594 -0.88 L 34.878 -0.88 C 34.059 -0.88 33.394 -1.545 33.394 -2.364 L 33.394 -3.848 C 33.394 -4.668 34.059 -5.332 34.878 -5.332 L 61.594 -5.332 C 62.414 -5.332 63.078 -4.668 63.078 -3.848 L 63.078 -2.364 C 63.078 -1.545 62.414 -0.88 61.594 -0.88" style="fill:#0d8c5d;fill-opacity:1;fill-rule:nonzero;stroke:none" clip-path="url(#clipPath11777)"/>
    <path id="path11778" d="M 63.078 22.868 L 63.078 21.382 C 63.078 20.562 62.414 19.9 61.594 19.9 L 34.878 19.9 C 34.058 19.9 33.394 20.562 33.394 21.382 L 33.394 22.868 C 33.394 23.686 34.058 24.352 34.878 24.352 L 61.594 24.352 C 62.414 24.352 63.078 23.686 63.078 22.868" style="fill:#0d8c5d;fill-opacity:1;fill-rule:nonzero;stroke:none" clip-path="url(#clipPath11779)"/>
    <path id="path11782" d="M -57.995 38.75 L -57.995 48.127 L -60.522 48.127 L -60.522 38.75 L -64.038 38.75 L -64.038 36.692 L -54.482 36.692 L -54.482 38.75 L -57.995 38.75 Z" style="fill:#231f20;fill-opacity:1;fill-rule:nonzero;stroke:none" clip-path="url(#clipPath11783)"/>
    <path id="path11784" d="M -48.183 48.127 L -50.791 48.127 C -50.791 46.622 -50.386 45.649 -49.383 43.786 L -46.597 38.603 L -52.153 38.603 L -52.153 36.693 L -44.151 36.693 L -44.151 38.555 C -46.661 42.911 -48.183 46.329 -48.183 48.127" style="fill:#231f20;fill-opacity:1;fill-rule:nonzero;stroke:none" clip-path="url(#clipPath11785)"/>
    <path id="path11786" d="M -40.737 31.955 L -67.451 31.955 C -68.271 31.955 -68.937 31.291 -68.937 30.471 L -68.937 28.987 C -68.937 28.167 -68.271 27.503 -67.451 27.503 L -40.737 27.503 C -39.917 27.503 -39.251 28.167 -39.251 28.987 L -39.251 30.471 C -39.251 31.291 -39.917 31.955 -40.737 31.955" style="fill:#845d2e;fill-opacity:1;fill-rule:nonzero;stroke:none" clip-path="url(#clipPath11787)"/>
    <path id="path11788" d="M -39.252 55.702 L -39.252 54.217 C -39.252 53.397 -39.916 52.734 -40.737 52.734 L -67.452 52.734 C -68.272 52.734 -68.937 53.397 -68.937 54.217 L -68.937 55.702 C -68.937 56.521 -68.272 57.186 -67.452 57.186 L -40.737 57.186 C -39.916 57.186 -39.252 56.521 -39.252 55.702" style="fill:#845d2e;fill-opacity:1;fill-rule:nonzero;stroke:none" clip-path="url(#clipPath11789)"/>
    <path id="path11792" d="M -23.893 38.75 L -23.893 48.127 L -26.42 48.127 L -26.42 38.75 L -29.936 38.75 L -29.936 36.692 L -20.38 36.692 L -20.38 38.75 L -23.893 38.75 Z" style="fill:#231f20;fill-opacity:1;fill-rule:nonzero;stroke:none" clip-path="url(#clipPath11793)"/>
    <path id="path11794" d="M -14.114 48.435 C -16.657 48.435 -18.099 46.912 -18.099 45.179 C -18.099 43.658 -17.241 42.702 -16.139 42.135 C -17.127 41.519 -17.742 40.742 -17.742 39.56 C -17.742 37.664 -16.026 36.352 -14.066 36.352 C -12.058 36.352 -10.389 37.34 -10.389 39.3 C -10.389 40.368 -10.939 41.278 -12.009 41.923 C -10.957 42.426 -10.033 43.398 -10.033 44.904 C -10.033 47.075 -11.766 48.435 -14.114 48.435 M -14.309 42.928 C -15.054 43.22 -15.798 44.03 -15.798 44.92 C -15.798 45.86 -15.183 46.751 -14.082 46.751 C -12.997 46.751 -12.397 45.99 -12.397 45.083 C -12.397 44.046 -13.338 43.415 -14.309 42.928 M -14.033 38.004 C -14.925 38.004 -15.491 38.555 -15.491 39.348 C -15.491 40.288 -14.551 40.871 -13.823 41.179 C -13.223 40.904 -12.575 40.159 -12.575 39.447 C -12.575 38.652 -13.094 38.004 -14.033 38.004" style="fill:#231f20;fill-opacity:1;fill-rule:nonzero;stroke:none" clip-path="url(#clipPath11795)"/>
    <path id="path11796" d="M -6.626 31.955 L -33.341 31.955 C -34.161 31.955 -34.826 31.291 -34.826 30.471 L -34.826 28.987 C -34.826 28.167 -34.161 27.503 -33.341 27.503 L -6.626 27.503 C -5.806 27.503 -5.141 28.167 -5.141 28.987 L -5.141 30.471 C -5.141 31.291 -5.806 31.955 -6.626 31.955" style="fill:#8f9828;fill-opacity:1;fill-rule:nonzero;stroke:none" clip-path="url(#clipPath11797)"/>
    <path id="path11798" d="M -5.142 55.702 L -5.142 54.217 C -5.142 53.397 -5.806 52.734 -6.627 52.734 L -33.342 52.734 C -34.16 52.734 -34.827 53.397 -34.827 54.217 L -34.827 55.702 C -34.827 56.521 -34.16 57.186 -33.342 57.186 L -6.627 57.186 C -5.806 57.186 -5.142 56.521 -5.142 55.702" style="fill:#8f9828;fill-opacity:1;fill-rule:nonzero;stroke:none" clip-path="url(#clipPath11799)"/>
    <path id="path11802" d="M 27.484 31.955 L 0.769 31.955 C -0.051 31.955 -0.716 31.291 -0.716 30.469 L -0.716 28.987 C -0.716 28.167 -0.051 27.503 0.769 27.503 L 27.484 27.503 C 28.304 27.503 28.969 28.167 28.969 28.987 L 28.969 30.469 C 28.969 31.291 28.304 31.955 27.484 31.955" style="fill:#588ed2;fill-opacity:1;fill-rule:nonzero;stroke:none" clip-path="url(#clipPath11803)"/>
    <path id="path11804" d="M 28.968 55.702 L 28.968 54.218 C 28.968 53.398 28.304 52.735 27.483 52.735 L 0.768 52.735 C -0.052 52.735 -0.717 53.398 -0.717 54.218 L -0.717 55.702 C -0.717 56.522 -0.052 57.187 0.768 57.187 L 27.483 57.187 C 28.304 57.187 28.968 56.522 28.968 55.702" style="fill:#588ed2;fill-opacity:1;fill-rule:nonzero;stroke:none" clip-path="url(#clipPath11805)"/>
    <path id="path11806" d="M 10.241 38.753 L 10.241 48.132 L 7.715 48.132 L 7.715 38.753 L 4.199 38.753 L 4.199 36.696 L 13.755 36.696 L 13.755 38.753 L 10.241 38.753 Z" style="fill:#231f20;fill-opacity:1;fill-rule:nonzero;stroke:none" clip-path="url(#clipPath11807)"/>
    <path id="path11808" d="M 18.53 48.439 C 17.882 48.439 17.3 48.358 16.813 48.244 L 17.17 46.3 C 17.477 46.431 18.076 46.576 18.741 46.576 C 20.344 46.576 21.512 45.298 21.672 42.996 C 21.284 43.338 20.538 43.775 19.308 43.775 C 17.413 43.775 15.889 42.527 15.889 40.388 C 15.889 38.106 17.413 36.42 19.809 36.42 C 22.936 36.42 24.053 38.592 24.053 41.619 C 24.053 45.588 22.19 48.439 18.53 48.439 M 19.908 38.219 C 18.773 38.219 18.189 39.143 18.189 40.131 C 18.189 41.199 18.902 41.976 20.037 41.976 C 20.765 41.976 21.349 41.702 21.574 41.344 C 21.705 41.15 21.705 40.698 21.705 40.356 C 21.705 39.271 21.073 38.219 19.908 38.219" style="fill:#231f20;fill-opacity:1;fill-rule:nonzero;stroke:none" clip-path="url(#clipPath11809)"/>
    <path id="path11812" d="M 95.705 31.955 L 68.989 31.955 C 68.169 31.955 67.505 31.291 67.505 30.469 L 67.505 28.987 C 67.505 28.167 68.169 27.503 68.989 27.503 L 95.705 27.503 C 96.523 27.503 97.189 28.167 97.189 28.987 L 97.189 30.469 C 97.189 31.291 96.523 31.955 95.705 31.955" style="fill:#f57f3a;fill-opacity:1;fill-rule:nonzero;stroke:none" clip-path="url(#clipPath11813)"/>
    <path id="path11814" d="M 97.188 55.702 L 97.188 54.218 C 97.188 53.398 96.524 52.735 95.704 52.735 L 68.988 52.735 C 68.168 52.735 67.504 53.398 67.504 54.218 L 67.504 55.702 C 67.504 56.522 68.168 57.187 68.988 57.187 L 95.704 57.187 C 96.524 57.187 97.188 56.522 97.188 55.702" style="fill:#f57f3a;fill-opacity:1;fill-rule:nonzero;stroke:none" clip-path="url(#clipPath11815)"/>
    <path id="path11816" d="M 75.985 38.755 L 75.985 48.132 L 73.458 48.132 L 73.458 38.755 L 69.942 38.755 L 69.942 36.697 L 79.498 36.697 L 79.498 38.755 L 75.985 38.755 Z" style="fill:#231f20;fill-opacity:1;fill-rule:nonzero;stroke:none" clip-path="url(#clipPath11817)"/>
    <path id="path11818" d="M 85.197 48.132 L 85.197 39.144 C 84.501 39.693 83.398 40.228 82.638 40.568 L 81.861 38.819 C 83.058 38.316 84.501 37.557 85.634 36.697 L 87.626 36.697 L 87.626 48.132 L 85.197 48.132 Z" style="fill:#231f20;fill-opacity:1;fill-rule:nonzero;stroke:none" clip-path="url(#clipPath11819)"/>
    <path id="path11820" d="M 92.321 48.132 L 92.321 39.144 C 91.625 39.693 90.522 40.228 89.762 40.568 L 88.985 38.819 C 90.182 38.316 91.625 37.557 92.758 36.697 L 94.75 36.697 L 94.75 48.132 L 92.321 48.132 Z" style="fill:#231f20;fill-opacity:1;fill-rule:nonzero;stroke:none" clip-path="url(#clipPath11821)"/>
    <path id="path11824" d="M 163.925 31.954 L 137.209 31.954 C 136.389 31.954 135.725 31.29 135.725 30.469 L 135.725 28.986 C 135.725 28.166 136.389 27.502 137.209 27.502 L 163.925 27.502 C 164.744 27.502 165.409 28.166 165.409 28.986 L 165.409 30.469 C 165.409 31.29 164.744 31.954 163.925 31.954" style="fill:#845d2e;fill-opacity:1;fill-rule:nonzero;stroke:none" clip-path="url(#clipPath11825)"/>
    <path id="path11826" d="M 165.409 55.701 L 165.409 54.217 C 165.409 53.397 164.744 52.735 163.925 52.735 L 137.209 52.735 C 136.389 52.735 135.725 53.397 135.725 54.217 L 135.725 55.701 C 135.725 56.521 136.389 57.187 137.209 57.187 L 163.925 57.187 C 164.744 57.187 165.409 56.521 165.409 55.701" style="fill:#845d2e;fill-opacity:1;fill-rule:nonzero;stroke:none" clip-path="url(#clipPath11827)"/>
    <path id="path11828" d="M 143.089 38.754 L 143.089 48.132 L 140.562 48.132 L 140.562 38.754 L 137.046 38.754 L 137.046 36.697 L 146.602 36.697 L 146.602 38.754 L 143.089 38.754 Z" style="fill:#231f20;fill-opacity:1;fill-rule:nonzero;stroke:none" clip-path="url(#clipPath11829)"/>
    <path id="path11830" d="M 152.301 48.132 L 152.301 39.144 C 151.605 39.693 150.502 40.228 149.742 40.568 L 148.963 38.819 C 150.162 38.316 151.605 37.556 152.737 36.697 L 154.73 36.697 L 154.73 48.132 L 152.301 48.132 Z" style="fill:#231f20;fill-opacity:1;fill-rule:nonzero;stroke:none" clip-path="url(#clipPath11831)"/>
    <path id="path11832" d="M 159.635 48.407 C 157.999 48.407 157.092 48.003 156.331 47.55 L 157.221 45.783 C 157.708 46.125 158.501 46.529 159.473 46.529 C 160.801 46.529 161.627 45.751 161.627 44.779 C 161.627 43.469 160.623 43.014 159.457 43.014 L 158.275 43.014 L 158.275 41.118 L 159.473 41.118 C 160.591 41.118 161.287 40.535 161.287 39.661 C 161.287 38.933 160.736 38.269 159.537 38.269 C 158.485 38.269 157.789 38.77 157.416 39.095 L 156.591 37.41 C 157.561 36.762 158.615 36.39 160.055 36.39 C 162.389 36.39 163.716 37.782 163.716 39.305 C 163.716 40.487 163.084 41.426 161.871 41.881 L 161.871 41.913 C 163.133 42.155 164.089 43.127 164.089 44.73 C 164.089 46.739 162.291 48.407 159.635 48.407" style="fill:#231f20;fill-opacity:1;fill-rule:nonzero;stroke:none" clip-path="url(#clipPath11833)"/>
    <path id="path11836" d="M 129.814 31.954 L 103.101 31.954 C 102.28 31.954 101.616 31.289 101.616 30.469 L 101.616 28.986 C 101.616 28.166 102.28 27.501 103.101 27.501 L 129.814 27.501 C 130.634 27.501 131.3 28.166 131.3 28.986 L 131.3 30.469 C 131.3 31.289 130.634 31.954 129.814 31.954" style="fill:#b90c47;fill-opacity:1;fill-rule:nonzero;stroke:none" clip-path="url(#clipPath11837)"/>
    <path id="path11838" d="M 131.299 55.701 L 131.299 54.217 C 131.299 53.397 130.635 52.733 129.813 52.733 L 103.1 52.733 C 102.28 52.733 101.615 53.397 101.615 54.217 L 101.615 55.701 C 101.615 56.521 102.28 57.186 103.1 57.186 L 129.813 57.186 C 130.635 57.186 131.299 56.521 131.299 55.701" style="fill:#b90c47;fill-opacity:1;fill-rule:nonzero;stroke:none" clip-path="url(#clipPath11839)"/>
    <path id="path11840" d="M 108.987 38.754 L 108.987 48.131 L 106.46 48.131 L 106.46 38.754 L 102.944 38.754 L 102.944 36.697 L 112.5 36.697 L 112.5 38.754 L 108.987 38.754 Z" style="fill:#231f20;fill-opacity:1;fill-rule:nonzero;stroke:none" clip-path="url(#clipPath11841)"/>
    <path id="path11842" d="M 118.198 48.132 L 118.198 39.144 C 117.502 39.693 116.4 40.228 115.64 40.568 L 114.862 38.818 C 116.06 38.316 117.502 37.556 118.636 36.697 L 120.628 36.697 L 120.628 48.132 L 118.198 48.132 Z" style="fill:#231f20;fill-opacity:1;fill-rule:nonzero;stroke:none" clip-path="url(#clipPath11843)"/>
    <path id="path11844" d="M 122.552 48.132 L 122.552 46.626 C 122.844 45.297 124.155 44.082 125.678 42.756 C 126.439 42.09 127.264 41.264 127.264 40.162 C 127.264 39.176 126.618 38.349 125.37 38.349 C 124.366 38.349 123.671 39.077 123.394 39.385 L 122.195 37.798 C 123.296 36.844 124.318 36.389 125.856 36.389 C 127.864 36.389 129.759 37.556 129.759 39.888 C 129.759 41.846 128.512 42.77 127.135 44.018 C 126.552 44.552 125.403 45.557 125.258 46.22 L 129.97 46.22 L 129.97 48.132 L 122.552 48.132 Z" style="fill:#231f20;fill-opacity:1;fill-rule:nonzero;stroke:none" clip-path="url(#clipPath11845)"/>
    <path id="path11848" d="M 61.595 31.954 L 34.879 31.954 C 34.057 31.954 33.395 31.289 33.395 30.469 L 33.395 28.986 C 33.395 28.166 34.057 27.501 34.879 27.501 L 61.595 27.501 C 62.413 27.501 63.079 28.166 63.079 28.986 L 63.079 30.469 C 63.079 31.289 62.413 31.954 61.595 31.954" style="fill:#8f9828;fill-opacity:1;fill-rule:nonzero;stroke:none" clip-path="url(#clipPath11849)"/>
    <path id="path11850" d="M 63.079 55.701 L 63.079 54.217 C 63.079 53.397 62.415 52.733 61.595 52.733 L 34.879 52.733 C 34.059 52.733 33.393 53.397 33.393 54.217 L 33.393 55.701 C 33.393 56.521 34.059 57.187 34.879 57.187 L 61.595 57.187 C 62.415 57.187 63.079 56.521 63.079 55.701" style="fill:#8f9828;fill-opacity:1;fill-rule:nonzero;stroke:none" clip-path="url(#clipPath11851)"/>
    <path id="path11852" d="M 40.457 38.753 L 40.457 48.132 L 37.931 48.132 L 37.931 38.753 L 34.415 38.753 L 34.415 36.696 L 43.971 36.696 L 43.971 38.753 L 40.457 38.753 Z" style="fill:#231f20;fill-opacity:1;fill-rule:nonzero;stroke:none" clip-path="url(#clipPath11853)"/>
    <path id="path11854" d="M 49.669 48.131 L 49.669 39.142 C 48.973 39.692 47.871 40.227 47.111 40.567 L 46.332 38.818 C 47.531 38.315 48.973 37.555 50.107 36.695 L 52.099 36.695 L 52.099 48.131 L 49.669 48.131 Z" style="fill:#231f20;fill-opacity:1;fill-rule:nonzero;stroke:none" clip-path="url(#clipPath11855)"/>
    <path id="path11856" d="M 57.862 48.438 C 54.413 48.438 53.733 45.037 53.733 42.397 C 53.733 39.757 54.477 36.356 57.927 36.356 C 61.377 36.356 62.058 39.757 62.058 42.397 C 62.058 45.037 61.313 48.438 57.862 48.438 M 57.894 38.282 C 56.242 38.282 56.194 41.23 56.194 42.397 C 56.194 43.548 56.275 46.526 57.894 46.526 C 59.514 46.526 59.579 43.532 59.579 42.397 C 59.579 41.198 59.531 38.282 57.894 38.282" style="fill:#231f20;fill-opacity:1;fill-rule:nonzero;stroke:none" clip-path="url(#clipPath11857)"/>
  </g>
</svg>