<?xml version="1.0" encoding="utf-8"?>
<svg viewBox="0 0 60 60" xmlns="http://www.w3.org/2000/svg">
  <g id="g-1" transform="matrix(-1.0671249628067017, 0, 0, 2.96950101852417, 2497.9511904861865, -5167.613319751719)" style="height: 100%;">
    <g class="path" transform="matrix(1, 0, 0, 1, -2.502188, 0.005053)">
      <path id="path1159" d="M 2287.1 1750.332 L 2315.371 1750.322" style="fill:none;stroke:#fcc907;stroke-width:7.17943;stroke-linecap:butt;stroke-linejoin:round;stroke-miterlimit:3.864;stroke-dasharray:none;stroke-opacity:1"/>
    </g>
  </g>
  <g id="g1" transform="matrix(2.9033830165863037, 0, 0, -2.9739670753479004, -6610.331592219558, 5235.417031194395)" style="height: 100%;">
    <g class="endpoint" style="" transform="matrix(-1, 0, 0, -1, 4574.199999, 3500.659995)">
      <path id="path5403-1" d="m 0,0 c 0,-2.074 -1.681,-3.752 -3.752,-3.752 -2.072,0 -3.753,1.678 -3.753,3.752 0,2.071 1.681,3.752 3.753,3.752 C -1.681,3.752 0,2.071 0,0" style="fill:#ffffff;fill-opacity:1;fill-rule:nonzero;stroke:#000000;stroke-width:1.043;stroke-linecap:butt;stroke-linejoin:round;stroke-miterlimit:4;stroke-dasharray:none;stroke-opacity:1" clip-path="url(#clipPath5404-7)" transform="matrix(1.3333333,0,0,-1.3333333,2292.1021,1750.3323)"/>
      <path id="path5405-5" d="m 0,0 c 0,-1.066 -0.862,-1.93 -1.928,-1.93 -1.065,0 -1.927,0.864 -1.927,1.93 0,1.063 0.862,1.928 1.927,1.928 C -0.862,1.928 0,1.063 0,0" style="fill:#fcc907;fill-opacity:1;fill-rule:evenodd;stroke:none" clip-path="url(#clipPath5406-9)" transform="matrix(1.3333333,0,0,-1.3333333,2289.6699,1750.331)"/>
    </g>
  </g>
</svg>