<?xml version="1.0" encoding="UTF-8" standalone="no"?>
<!-- Created with Inkscape (http://www.inkscape.org/) -->

<svg
   width="8.7552805mm"
   height="8.9670801mm"
   viewBox="0 0 8.7552804 8.9670801"
   version="1.1"
   id="svg1"
   xmlns="http://www.w3.org/2000/svg"
   xmlns:svg="http://www.w3.org/2000/svg">
  <defs
     id="defs1" />
  <g
     id="layer1"
     transform="translate(-126.06175,-137.0686)">
    <g
       id="g-1"
       transform="matrix(-0.12771157,0,0,0.78690133,426.58718,-1235.7867)">
      <g
         class="path"
         transform="translate(-2.502188,0.005053)"
         id="g1">
        <path
           id="path1159"
           d="m 2287.1,1750.332 28.271,-0.01"
           style="fill:none;stroke:#fcc907;stroke-width:7.17943;stroke-linecap:butt;stroke-linejoin:round;stroke-miterlimit:3.864;stroke-dasharray:none;stroke-opacity:1" />
      </g>
    </g>
    <g
       id="g3"
       transform="matrix(0.76818676,0,0,-0.78686212,-1626.4815,1518.8187)">
      <g
         class="endpoint"
         transform="rotate(180,2287.1,1750.33)"
         id="g2">
        <path
           id="path5403-1"
           d="m 0,0 c 0,-2.074 -1.681,-3.752 -3.752,-3.752 -2.072,0 -3.753,1.678 -3.753,3.752 0,2.071 1.681,3.752 3.753,3.752 C -1.681,3.752 0,2.071 0,0"
           style="fill:#ffffff;fill-opacity:1;fill-rule:nonzero;stroke:#000000;stroke-width:1.043;stroke-linecap:butt;stroke-linejoin:round;stroke-miterlimit:4;stroke-dasharray:none;stroke-opacity:1"
           clip-path="url(#clipPath5404-7)"
           transform="matrix(1.3333333,0,0,-1.3333333,2292.1021,1750.3323)" />
        <path
           id="path5405-5"
           d="m 0,0 c 0,-1.066 -0.862,-1.93 -1.928,-1.93 -1.065,0 -1.927,0.864 -1.927,1.93 0,1.063 0.862,1.928 1.927,1.928 C -0.862,1.928 0,1.063 0,0"
           style="fill:#fcc907;fill-opacity:1;fill-rule:evenodd;stroke:none"
           clip-path="url(#clipPath5406-9)"
           transform="matrix(1.3333333,0,0,-1.3333333,2289.6699,1750.331)" />
      </g>
    </g>
  </g>
</svg>
