<?xml version="1.0" encoding="utf-8"?>
<svg viewBox="0 0 280 280" xmlns="http://www.w3.org/2000/svg">
  <g transform="matrix(9.432053565979004, 0, 0, 9.432053565979004, -1600.251598836866, -1497.885631277305)">
    <path id="path11673" d="M 192.756 158.808 L 176.252 158.808 C 172.627 158.808 169.661 161.774 169.661 165.399 L 169.661 181.903 C 169.661 185.527 172.627 188.494 176.252 188.494 L 192.756 188.494 C 196.38 188.494 199.347 185.527 199.347 181.903 L 199.347 165.399 C 199.347 161.774 196.38 158.808 192.756 158.808 M 197.416 181.903 C 197.416 184.474 195.325 186.563 192.756 186.563 L 176.252 186.563 C 173.681 186.563 171.591 184.474 171.591 181.903 L 171.591 165.399 C 171.591 162.828 173.681 160.738 176.252 160.738 L 192.756 160.738 C 195.325 160.738 197.416 162.828 197.416 165.399 L 197.416 181.903 Z" style="fill-opacity: 1; fill-rule: nonzero; stroke: none; fill: rgb(31, 60, 144);"/>
    <path id="path11675" d="M 195.154 171.351 C 195.154 169.347 193.669 168.42 192.224 168.42 L 189.44 168.42 C 188.92 168.42 188.624 168.827 188.624 169.274 L 188.624 177.994 C 188.624 178.512 189.144 178.772 189.625 178.772 C 190.182 178.772 190.628 178.512 190.628 177.994 L 190.628 174.618 L 191.481 174.618 L 193.149 178.364 C 193.298 178.662 193.558 178.772 193.856 178.772 C 194.448 178.772 195.302 178.215 194.969 177.548 L 193.373 174.208 C 194.338 173.726 195.154 172.872 195.154 171.351 M 187.621 177.807 C 187.621 177.362 187.325 176.88 186.805 176.88 L 183.985 176.88 L 183.985 174.32 L 186.322 174.32 C 186.841 174.32 187.138 173.874 187.138 173.466 C 187.138 173.022 186.841 172.612 186.322 172.612 L 183.985 172.612 L 183.985 170.275 L 186.582 170.275 C 187.102 170.275 187.398 169.755 187.398 169.347 C 187.398 168.902 187.102 168.42 186.582 168.42 L 182.797 168.42 C 182.278 168.42 181.981 168.827 181.981 169.274 L 181.981 177.956 C 181.981 178.476 182.501 178.735 182.982 178.735 L 186.805 178.735 C 187.325 178.735 187.621 178.215 187.621 177.807 M 180.793 171.351 C 180.793 169.347 179.309 168.42 177.862 168.42 L 175.08 168.42 C 174.56 168.42 174.264 168.827 174.264 169.274 L 174.264 177.994 C 174.264 178.512 174.782 178.772 175.265 178.772 C 175.821 178.772 176.266 178.512 176.266 177.994 L 176.266 174.618 L 177.12 174.618 L 178.79 178.364 C 178.938 178.662 179.198 178.772 179.496 178.772 C 180.089 178.772 180.942 178.215 180.608 177.548 L 179.012 174.208 C 179.977 173.726 180.793 172.872 180.793 171.351 M 193.074 171.574 C 193.074 172.835 191.926 173.131 191.221 173.131 L 190.628 173.131 L 190.628 170.127 L 191.332 170.127 C 192.26 170.127 193.074 170.535 193.074 171.574 M 178.716 171.574 C 178.716 172.835 177.566 173.131 176.861 173.131 L 176.266 173.131 L 176.266 170.127 L 176.972 170.127 C 177.9 170.127 178.716 170.535 178.716 171.574" style="fill-opacity: 1; fill-rule: nonzero; stroke: none; fill: rgb(31, 60, 144);"/>
  </g>
</svg>