<?xml version="1.0" encoding="utf-8"?>
<svg viewBox="0 0 60 60" xmlns="http://www.w3.org/2000/svg">
  <g transform="matrix(5.687743186950684, 0, 0, 5.687743186950684, -24.87250346595424, -155.19006463281858)">
    <path id="path12035" d="M 8.498 33.356 C 8.498 32.257 8.002 30.988 6.81 30.988 C 6.231 30.988 5.883 31.285 5.574 31.729 L 5.574 29.377 L 4.373 29.377 L 4.373 35.682 L 5.531 35.682 L 5.531 35.478 C 5.763 35.69 6.163 35.828 6.505 35.828 C 7.959 35.828 8.498 34.38 8.498 33.356 M 7.254 33.534 C 7.254 34.157 7.066 34.984 6.299 34.984 C 5.754 34.984 5.567 34.702 5.567 34.388 L 5.567 32.845 C 5.567 32.581 5.593 32.453 5.797 32.257 C 5.925 32.128 6.111 32.026 6.35 32.026 C 7.109 32.026 7.254 32.921 7.254 33.534" style="fill:#231f20;fill-opacity:1;fill-rule:nonzero;stroke:none" clip-path="url(#clipPath12036)"/>
    <path id="path12037" d="M 10.739 29.922 C 10.739 29.555 10.483 29.291 10.075 29.291 C 9.666 29.291 9.4 29.555 9.4 29.922 C 9.4 30.289 9.666 30.553 10.075 30.553 C 10.483 30.553 10.739 30.289 10.739 29.922 M 10.663 31.131 L 9.47 31.131 L 9.47 35.679 L 10.663 35.679 L 10.663 31.131 Z" style="fill:#231f20;fill-opacity:1;fill-rule:nonzero;stroke:none" clip-path="url(#clipPath12038)"/>
    <path id="path12039" d="M 14.922 34.318 C 14.922 33.561 14.463 33.212 13.815 32.973 L 13.414 32.828 C 13.192 32.752 12.876 32.614 12.876 32.341 C 12.876 32.137 13.023 31.889 13.507 31.889 C 13.796 31.889 14.164 31.993 14.427 32.162 L 14.794 31.284 C 14.555 31.165 14.138 30.986 13.567 30.986 C 12.502 30.986 11.778 31.669 11.778 32.529 C 11.778 33.194 12.17 33.544 12.758 33.774 L 13.132 33.918 C 13.379 34.012 13.806 34.13 13.806 34.472 C 13.806 34.829 13.422 34.94 13.107 34.94 C 12.748 34.94 12.331 34.805 12.042 34.6 L 11.675 35.477 C 11.93 35.63 12.443 35.826 13.012 35.826 C 14.206 35.826 14.922 35.205 14.922 34.318" style="fill:#231f20;fill-opacity:1;fill-rule:nonzero;stroke:none" clip-path="url(#clipPath12040)"/>
  </g>
</svg>