<?xml version="1.0" encoding="utf-8"?>
<svg viewBox="0 0 283.46 283.46" xmlns="http://www.w3.org/2000/svg">
  <path d="M274.25 18.42H9.21C4.12 18.42 0 14.3 0 9.21S4.12 0 9.21 0h265.04c5.09 0 9.21 4.12 9.21 9.21s-4.12 9.21-9.21 9.21m9.21 255.83c0-5.09-4.12-9.22-9.21-9.22H9.21c-5.09 0-9.21 4.13-9.21 9.22s4.12 9.21 9.21 9.21h265.04c5.09 0 9.21-4.12 9.21-9.21m-32.32-38.41c2.19 0 3.97-1.78 3.97-3.97v-3.97c0-2.19-1.78-3.96-3.97-3.96H28.35v11.91h222.79M28.35 170.78H69.6c1.09 0 1.98-.89 1.98-1.98v-54.85c0-1.09-.89-1.98-1.98-1.98H28.35V99.21h64.37l25.23-20.74-31.74-26.08a3.207 3.207 0 0 1-.44-4.52l2.04-2.49a3.217 3.217 0 0 1 4.52-.44l36.14 29.69c2.41 1.98 2.42 5.68 0 7.66L107.89 99.2h98.03c7.78 0 15.18 3.29 20.43 9.03 15.45 16.89 25.27 37.77 28.41 60.39 1 7.19-.09 14.31-3.16 20.56-7.09 14.44-21.47 23.41-37.55 23.41H28.35zm188.48-54.06c-2.8-3.05-6.77-4.75-10.91-4.75h-34.57c-1.09 0-1.98.89-1.98 1.98v54.85c0 1.09.89 1.98 1.98 1.98h59.11c6.94 0 11.07-5.46 9.31-12.17-4.1-15.56-11.91-29.87-22.94-41.89m-62.2 83.12c1.09 0 1.98-.89 1.98-1.98v-83.91c0-1.09-.89-1.98-1.98-1.98h-25.79c-1.1 0-1.99.89-1.99 1.98v83.91c0 1.09.89 1.98 1.99 1.98zm-68.31-87.87c-1.09 0-1.98.89-1.98 1.98v83.91c0 1.09.89 1.98 1.98 1.98h25.79c1.1 0 1.99-.89 1.99-1.98v-83.91c0-1.09-.89-1.98-1.99-1.98z" transform="matrix(0.9999999999999999, 0, 0, 0.9999999999999999, -1.1368683772161603e-13, -2.842170943040401e-14)"/>
  <path d="M274.25 18.42H9.21C4.12 18.42 0 14.3 0 9.21S4.12 0 9.21 0h265.04c5.09 0 9.21 4.12 9.21 9.21s-4.12 9.21-9.21 9.21m9.21 255.83c0-5.09-4.12-9.22-9.21-9.22H9.21c-5.09 0-9.21 4.13-9.21 9.22s4.12 9.21 9.21 9.21h265.04c5.09 0 9.21-4.12 9.21-9.21m-32.32-38.41c2.19 0 3.97-1.78 3.97-3.97v-3.97c0-2.19-1.78-3.96-3.97-3.96H28.35v11.91h222.79M28.35 170.78H69.6c1.09 0 1.98-.89 1.98-1.98v-54.85c0-1.09-.89-1.98-1.98-1.98H28.35V99.21h64.37l25.23-20.74-31.74-26.08a3.207 3.207 0 0 1-.44-4.52l2.04-2.49a3.217 3.217 0 0 1 4.52-.44l36.14 29.69c2.41 1.98 2.42 5.68 0 7.66L107.89 99.2h98.03c7.78 0 15.18 3.29 20.43 9.03 15.45 16.89 25.27 37.77 28.41 60.39 1 7.19-.09 14.31-3.16 20.56-7.09 14.44-21.47 23.41-37.55 23.41H28.35zm188.48-54.06c-2.8-3.05-6.77-4.75-10.91-4.75h-34.57c-1.09 0-1.98.89-1.98 1.98v54.85c0 1.09.89 1.98 1.98 1.98h59.11c6.94 0 11.07-5.46 9.31-12.17-4.1-15.56-11.91-29.87-22.94-41.89m-62.2 83.12c1.09 0 1.98-.89 1.98-1.98v-83.91c0-1.09-.89-1.98-1.98-1.98h-25.79c-1.1 0-1.99.89-1.99 1.98v83.91c0 1.09.89 1.98 1.99 1.98zm-68.31-87.87c-1.09 0-1.98.89-1.98 1.98v83.91c0 1.09.89 1.98 1.98 1.98h25.79c1.1 0 1.99-.89 1.99-1.98v-83.91c0-1.09-.89-1.98-1.99-1.98z" style="fill: rgb(31, 60, 144);" transform="matrix(0.9999999999999999, 0, 0, 0.9999999999999999, -1.1368683772161603e-13, -2.842170943040401e-14)"/>
</svg>