<?xml version="1.0" encoding="utf-8"?>
<svg viewBox="0 0 280 280" xmlns="http://www.w3.org/2000/svg">
  <g transform="matrix(9.432694435119629, 0, 0, 9.432691574096678, -2550.176044390917, -610.747929355114)">
    <path id="path11615" d="M 293.45 64.748 L 276.945 64.748 C 273.321 64.748 270.355 67.713 270.355 71.339 L 270.355 87.843 C 270.355 91.467 273.321 94.432 276.945 94.432 L 293.45 94.432 C 297.074 94.432 300.039 91.467 300.039 87.843 L 300.039 71.339 C 300.039 67.713 297.074 64.748 293.45 64.748 M 298.11 87.843 C 298.11 90.412 296.019 92.503 293.45 92.503 L 276.945 92.503 C 274.375 92.503 272.285 90.412 272.285 87.843 L 272.285 71.339 C 272.285 68.768 274.375 66.677 276.945 66.677 L 293.45 66.677 C 296.019 66.677 298.11 68.768 298.11 71.339 L 298.11 87.843 Z" style="fill-opacity: 1; fill-rule: nonzero; stroke: none; fill: rgb(31, 60, 144);"/>
    <path id="path11617" d="M 289.611 86.174 L 289.785 86.038 C 290.319 85.607 290.817 84.944 291.18 83.919 C 291.685 82.48 292.041 81.194 292.141 79.612 C 292.277 77.664 291.476 74.635 290.944 73.22 L 290.759 72.722 C 290.644 72.404 290.208 71.731 289.433 70.923 C 288.768 70.23 288.128 70.179 287.153 70.179 L 283.2 70.179 C 282.227 70.179 281.587 70.23 280.92 70.923 C 280.145 71.728 279.708 72.404 279.595 72.722 L 279.409 73.223 C 278.877 74.635 278.076 77.664 278.211 79.615 C 278.309 81.192 278.668 82.476 279.176 83.919 C 279.536 84.947 280.033 85.607 280.568 86.038 L 280.745 86.171 L 277.865 89.374 C 277.631 89.635 277.631 90.058 277.865 90.316 C 278.099 90.576 278.477 90.576 278.709 90.316 L 279.704 89.212 L 290.651 89.212 L 291.643 90.316 C 291.875 90.576 292.255 90.576 292.488 90.316 C 292.723 90.058 292.723 89.635 292.488 89.374 L 289.611 86.174 Z M 288.644 85.006 C 288.097 85.006 287.653 84.564 287.653 84.016 C 287.653 83.472 288.097 83.03 288.644 83.03 C 289.192 83.03 289.633 83.472 289.633 84.016 C 289.633 84.564 289.192 85.006 288.644 85.006 M 279.692 78.666 C 279.088 78.666 280.037 73.36 280.471 73.36 L 289.775 73.36 C 290.245 73.36 291.349 78.666 290.609 78.666 L 279.692 78.666 Z M 280.7 84.016 C 280.7 83.472 281.143 83.03 281.689 83.03 C 282.237 83.03 282.677 83.472 282.677 84.016 C 282.677 84.564 282.237 85.006 281.689 85.006 C 281.143 85.006 280.7 84.564 280.7 84.016 M 280.901 87.88 L 281.961 86.702 C 282.479 86.822 282.955 86.822 283.301 86.822 L 287.052 86.822 C 287.399 86.822 287.875 86.822 288.392 86.702 L 289.452 87.88 L 280.901 87.88 Z" style="fill-opacity: 1; fill-rule: nonzero; stroke: none; fill: rgb(31, 60, 144);"/>
  </g>
</svg>