<svg xmlns="http://www.w3.org/2000/svg" height="80px" viewBox="0 0 24 24" width="80px">
  <path style="fill:white" d="M 6.562 21.787 C 5.965 21.787 5.453 21.575 5.026 21.149 C 4.6 20.723 4.388 20.212 4.388 19.613 L 4.388 5.475 L 3.3 5.475 L 3.3 3.301 L 8.738 3.301 L 8.738 2.213 L 15.262 2.213 L 15.262 3.301 L 20.7 3.301 L 20.7 5.475 L 19.612 5.475 L 19.612 19.613 C 19.612 20.212 19.4 20.723 18.973 21.149 C 18.547 21.575 18.035 21.787 17.438 21.787 L 6.562 21.787 Z M 17.438 5.475 L 6.562 5.475 L 6.562 19.613 L 17.438 19.613 L 17.438 5.475 Z M 8.738 17.437 L 10.912 17.437 L 10.912 7.651 L 8.738 7.651 L 8.738 17.437 Z M 13.088 17.437 L 15.262 17.437 L 15.262 7.651 L 13.088 7.651 L 13.088 17.437 Z M 6.562 5.475 L 6.562 19.613 L 6.562 5.475 Z"></path>
</svg>