<svg width="80px" height="80px" viewBox="0 0 24 24" fill="none" xmlns="http://www.w3.org/2000/svg" xmlns:bx="https://boxy-svg.com">
  <path d="M 4.044 21.494 C 3.636 21.494 3.245 21.332 2.958 21.044 C 2.796 20.89 2.671 20.702 2.593 20.493 C 2.513 20.284 2.485 20.057 2.507 19.834 L 2.835 15.9 C 2.86 15.54 3.011 15.198 3.266 14.939 L 14.576 3.629 C 15.355 2.907 16.379 2.506 17.444 2.506 C 18.507 2.506 19.531 2.907 20.312 3.629 C 20.695 4.017 20.998 4.479 21.203 4.986 C 21.408 5.491 21.509 6.034 21.499 6.578 C 21.507 7.083 21.416 7.582 21.229 8.052 C 21.043 8.52 20.765 8.945 20.414 9.303 L 9.104 20.613 C 8.852 20.872 8.518 21.031 8.162 21.064 L 4.187 21.434 L 4.044 21.494 Z M 5.847 16.7 L 5.724 18.257 L 7.322 18.114 L 18.243 7.193 C 18.37 7.04 18.436 6.843 18.428 6.64 C 18.424 6.355 18.324 6.08 18.139 5.862 C 17.938 5.712 17.694 5.633 17.444 5.633 C 17.192 5.633 16.948 5.712 16.746 5.862 L 5.847 16.7 Z" style="fill: rgb(255, 255, 255);" id="object-0"></path>
  <g id="g1" transform="matrix(1.079289, 0, 0, -1.07942, -2453.113806, 1904.699857)" style="height: 100%;">
    <g class="endpoint" style="" transform="matrix(-1, 0, 0, -1, 4574.199999, 3500.659995)">
      <path id="path5403-1" d="m 0,0 c 0,-2.074 -1.681,-3.752 -3.752,-3.752 -2.072,0 -3.753,1.678 -3.753,3.752 0,2.071 1.681,3.752 3.753,3.752 C -1.681,3.752 0,2.071 0,0" style="fill: rgb(0, 0, 0); fill-opacity: 1; fill-rule: nonzero; stroke-width: 1.043; stroke-linecap: butt; stroke-linejoin: round; stroke-miterlimit: 4; stroke-dasharray: none; stroke-opacity: 1; stroke: rgb(255, 255, 255);" clip-path="url(#clipPath5404-7)" transform="matrix(1.3333333,0,0,-1.3333333,2292.1021,1750.3323)"></path>
    </g>
  </g>
</svg>