<svg xmlns="http://www.w3.org/2000/svg" viewBox="0 0 24 24" width="80px" height="80px">
  <path d="M 12 16.75 C 11.802 16.747 11.613 16.667 11.473 16.527 C 11.333 16.387 11.253 16.198 11.25 16 L 11.25 11 C 11.25 10.801 11.329 10.61 11.47 10.47 C 11.61 10.329 11.801 10.25 12 10.25 C 12.199 10.25 12.39 10.329 12.53 10.47 C 12.671 10.61 12.75 10.801 12.75 11 L 12.75 16 C 12.748 16.198 12.668 16.387 12.528 16.527 C 12.388 16.667 12.198 16.747 12 16.75 Z" style="stroke: rgb(255, 255, 255); fill: rgb(255, 255, 255);"></path>
  <path d="M 12 9.25 C 11.802 9.247 11.613 9.167 11.473 9.027 C 11.333 8.887 11.253 8.698 11.25 8.5 L 11.25 8 C 11.25 7.801 11.329 7.61 11.47 7.47 C 11.61 7.329 11.801 7.25 12 7.25 C 12.199 7.25 12.39 7.329 12.53 7.47 C 12.671 7.61 12.75 7.801 12.75 8 L 12.75 8.5 C 12.748 8.698 12.668 8.887 12.528 9.027 C 12.388 9.167 12.198 9.247 12 9.25 Z" style="stroke: rgb(255, 255, 255); fill: rgb(255, 255, 255);"></path>
  <path d="M 12 21 C 10.22 21 8.48 20.472 7 19.483 C 5.52 18.494 4.366 17.089 3.685 15.444 C 3.004 13.799 2.826 11.99 3.173 10.244 C 3.52 8.498 4.378 6.895 5.636 5.636 C 6.895 4.377 8.499 3.52 10.244 3.173 C 11.99 2.826 13.8 3.004 15.444 3.685 C 17.089 4.366 18.494 5.52 19.483 7 C 20.472 8.48 21 10.22 21 12 C 21 14.387 20.052 16.676 18.364 18.364 C 16.676 20.052 14.387 21 12 21 Z M 12 4.5 C 10.517 4.5 9.067 4.94 7.833 5.764 C 6.6 6.588 5.639 7.759 5.071 9.13 C 4.503 10.5 4.355 12.008 4.644 13.463 C 4.934 14.918 5.648 16.254 6.697 17.303 C 7.746 18.352 9.082 19.066 10.537 19.356 C 11.992 19.645 13.5 19.497 14.87 18.929 C 16.241 18.361 17.412 17.4 18.236 16.167 C 19.06 14.933 19.5 13.483 19.5 12 C 19.5 10.011 18.71 8.103 17.303 6.697 C 15.897 5.29 13.989 4.5 12 4.5 Z" style="stroke: rgb(255, 255, 255); fill: rgb(255, 255, 255);"></path>
</svg>