<svg xmlns="http://www.w3.org/2000/svg" height="80px" viewBox="0 0 24 24" width="80px">
  <path d="M 4.711 18.118 L 3.3 18.118 L 3.3 7.765 C 3.294 7.43 3.355 7.096 3.48 6.783 C 3.604 6.472 3.789 6.188 4.023 5.947 C 4.257 5.707 4.536 5.514 4.845 5.382 C 5.154 5.25 5.486 5.181 5.822 5.177 L 8.09 5.177 C 8.193 5.174 8.295 5.195 8.389 5.235 C 8.483 5.276 8.566 5.336 8.637 5.413 L 11.15 8.452 L 15.771 8.452 C 16.11 8.45 16.448 8.517 16.762 8.649 C 17.077 8.78 17.361 8.973 17.6 9.215 C 17.838 9.459 18.026 9.747 18.151 10.063 C 18.277 10.38 18.338 10.719 18.33 11.059 L 18.33 11.53 L 16.919 11.53 L 16.919 11.059 C 16.923 10.906 16.895 10.753 16.839 10.612 C 16.783 10.468 16.699 10.338 16.592 10.23 C 16.484 10.119 16.357 10.033 16.215 9.972 C 16.075 9.913 15.923 9.883 15.771 9.883 L 10.81 9.883 C 10.708 9.883 10.606 9.859 10.513 9.816 C 10.421 9.771 10.339 9.708 10.274 9.629 L 7.761 6.588 L 5.822 6.588 C 5.519 6.598 5.232 6.727 5.024 6.949 C 4.816 7.168 4.703 7.462 4.711 7.765 L 4.711 18.118 Z" style="fill: rgb(255, 255, 255); stroke: rgb(255, 255, 255);"></path>
  <path d="M 16.825 18.824 L 4.006 18.824 C 3.885 18.823 3.766 18.791 3.66 18.731 C 3.555 18.672 3.466 18.588 3.404 18.485 C 3.344 18.379 3.311 18.258 3.311 18.137 C 3.311 18.015 3.344 17.894 3.404 17.788 L 6.585 11.671 C 6.645 11.557 6.737 11.463 6.848 11.397 C 6.959 11.33 7.086 11.296 7.215 11.295 L 20.006 11.295 C 20.127 11.296 20.244 11.326 20.35 11.386 C 20.455 11.445 20.544 11.53 20.608 11.633 C 20.668 11.739 20.7 11.86 20.7 11.981 C 20.7 12.103 20.668 12.224 20.608 12.33 L 17.427 18.447 C 17.366 18.556 17.28 18.647 17.174 18.714 C 17.069 18.78 16.948 18.819 16.825 18.824 Z M 5.164 17.412 L 16.401 17.412 L 18.848 12.706 L 7.61 12.706 L 5.164 17.412 Z" style="fill: rgb(255, 255, 255); stroke: rgb(255, 255, 255);"></path>
</svg>