<?xml version="1.0" encoding="utf-8"?>
<svg width="80px" height="80px" viewBox="0 0 24 24" fill="none" xmlns="http://www.w3.org/2000/svg" xmlns:bx="https://boxy-svg.com"><defs/><g transform="matrix(0.978546, 0, 0, 0.978546, 0.272124, -0.025842)" id="object-0"><g><path d="M 18.22 20.75 L 5.78 20.75 C 5.433 20.736 5.093 20.654 4.778 20.508 C 4.463 20.362 4.18 20.155 3.945 19.9 C 3.71 19.644 3.527 19.345 3.408 19.019 C 3.289 18.693 3.235 18.347 3.25 18 L 3.25 10.837 C 3.25 10.638 3.329 10.448 3.47 10.307 C 3.61 10.166 3.801 10.087 4 10.087 C 4.199 10.087 4.39 10.166 4.53 10.307 C 4.671 10.448 4.75 10.638 4.75 10.837 L 4.75 18 C 4.724 18.297 4.814 18.592 5 18.825 C 5.186 19.058 5.455 19.21 5.75 19.25 L 18.22 19.25 C 18.515 19.21 18.784 19.058 18.97 18.825 C 19.156 18.592 19.246 18.297 19.22 18 L 19.22 10.837 C 19.22 10.638 19.299 10.448 19.44 10.307 C 19.58 10.166 19.771 10.087 19.97 10.087 C 20.169 10.087 20.36 10.166 20.5 10.307 C 20.641 10.448 20.72 10.638 20.72 10.837 L 20.72 18 C 20.75 18.695 20.504 19.374 20.036 19.889 C 19.568 20.405 18.915 20.714 18.22 20.75 Z" style="fill: rgb(255, 255, 255); stroke: rgb(255, 255, 255);"/><path d="M 18.22 3.829 L 5.78 3.829 C 5.433 3.843 5.093 3.925 4.778 4.071 C 4.463 4.217 4.18 4.424 3.945 4.679 C 3.71 4.935 3.527 5.234 3.408 5.56 C 3.289 5.886 3.235 6.232 3.25 6.579 L 3.25 13.742 C 3.25 13.941 3.329 14.131 3.47 14.272 C 3.61 14.413 3.801 14.492 4 14.492 C 4.199 14.492 4.39 14.413 4.53 14.272 C 4.671 14.131 4.75 13.941 4.75 13.742 L 4.75 6.579 C 4.724 6.282 4.814 5.987 5 5.754 C 5.186 5.521 5.455 5.369 5.75 5.329 L 18.22 5.329 C 18.515 5.369 18.784 5.521 18.97 5.754 C 19.156 5.987 19.246 6.282 19.22 6.579 L 19.22 13.742 C 19.22 13.941 19.299 14.131 19.44 14.272 C 19.58 14.413 19.771 14.492 19.97 14.492 C 20.169 14.492 20.36 14.413 20.5 14.272 C 20.641 14.131 20.72 13.941 20.72 13.742 L 20.72 6.579 C 20.75 5.884 20.504 5.205 20.036 4.69 C 19.568 4.174 18.915 3.865 18.22 3.829 Z" style="fill: rgb(255, 255, 255); stroke: rgb(255, 255, 255);"/></g><path d="M 9.704 11.811 L 13.737 18.495 L 5.67 18.495 L 9.704 11.811 Z" style="fill: rgb(255, 255, 255); stroke: rgb(255, 255, 255);"/><path d="M 14.139 13.313 L 18.172 19.026 L 10.105 19.026 L 14.139 13.313 Z" style="fill: rgb(255, 255, 255); stroke: rgb(255, 255, 255);"/></g></svg>