<?xml version="1.0" encoding="utf-8"?>
<svg xmlns="http://www.w3.org/2000/svg" viewBox="0 0 24 24" width="80px" height="80px">


<path d="M 12.87 11.13 L 12.87 3.87 C 12.87 3.642 12.778 3.418 12.616 3.255 C 12.453 3.092 12.231 3 12 3 C 11.769 3 11.548 3.092 11.385 3.255 C 11.222 3.418 11.13 3.642 11.13 3.87 L 11.13 11.13 L 3.87 11.13 C 3.642 11.13 3.418 11.222 3.255 11.385 C 3.092 11.548 3 11.769 3 12 C 3 12.231 3.092 12.453 3.255 12.616 C 3.418 12.778 3.642 12.87 3.87 12.87 L 11.13 12.87 L 11.13 20.13 C 11.133 20.358 11.225 20.581 11.388 20.744 C 11.551 20.906 11.77 20.998 12 21 C 12.231 21 12.453 20.908 12.616 20.746 C 12.778 20.582 12.87 20.358 12.87 20.13 L 12.87 12.87 L 20.13 12.87 C 20.358 12.87 20.582 12.778 20.746 12.616 C 20.908 12.453 21 12.231 21 12 C 20.998 11.77 20.906 11.551 20.744 11.388 C 20.581 11.225 20.358 11.133 20.13 11.13 L 12.87 11.13 Z" style="fill-rule: evenodd; stroke-miterlimit: 14.13; stroke-linecap: round; stroke-linejoin: round; paint-order: stroke; fill: rgb(255, 255, 255); stroke-width: 2px; stroke: rgb(255, 255, 255);" id="object-0"></path>

</svg>