<?xml version="1.0" encoding="utf-8"?>
<svg xmlns="http://www.w3.org/2000/svg" viewBox="0 0 24 24" width="80px" height="80px" xmlns:bx="https://boxy-svg.com"><defs><bx:export><bx:file format="svg" path="Sans titre.svg"/></bx:export></defs><path d="M 18 16.75 L 16 16.75 C 15.801 16.75 15.61 16.671 15.47 16.53 C 15.329 16.39 15.25 16.199 15.25 16 C 15.25 15.801 15.329 15.61 15.47 15.47 C 15.61 15.329 15.801 15.25 16 15.25 L 18 15.25 C 18.331 15.25 18.649 15.118 18.884 14.884 C 19.118 14.65 19.25 14.332 19.25 14 L 19.25 10 C 19.25 9.669 19.118 9.351 18.884 9.116 C 18.649 8.882 18.331 8.75 18 8.75 L 6 8.75 C 5.668 8.75 5.35 8.882 5.116 9.116 C 4.882 9.351 4.75 9.669 4.75 10 L 4.75 14 C 4.75 14.332 4.882 14.65 5.116 14.884 C 5.35 15.118 5.668 15.25 6 15.25 L 8 15.25 C 8.199 15.25 8.39 15.329 8.53 15.47 C 8.671 15.61 8.75 15.801 8.75 16 C 8.75 16.199 8.671 16.39 8.53 16.53 C 8.39 16.671 8.199 16.75 8 16.75 L 6 16.75 C 5.271 16.75 4.571 16.46 4.055 15.945 C 3.54 15.429 3.25 14.729 3.25 14 L 3.25 10 C 3.25 9.271 3.54 8.571 4.055 8.056 C 4.571 7.54 5.271 7.25 6 7.25 L 18 7.25 C 18.729 7.25 19.429 7.54 19.944 8.056 C 20.46 8.571 20.75 9.271 20.75 10 L 20.75 14 C 20.75 14.729 20.46 15.429 19.944 15.945 C 19.429 16.46 18.729 16.75 18 16.75 Z" style="stroke: rgb(255, 255, 255); fill: rgb(255, 255, 255);"/><path d="M 16 8.75 C 15.802 8.748 15.613 8.668 15.472 8.528 C 15.332 8.388 15.253 8.198 15.25 8 L 15.25 4.75 L 8.75 4.75 L 8.75 8 C 8.75 8.199 8.671 8.39 8.53 8.53 C 8.39 8.671 8.199 8.75 8 8.75 C 7.801 8.75 7.61 8.671 7.47 8.53 C 7.329 8.39 7.25 8.199 7.25 8 L 7.25 4.5 C 7.25 4.169 7.382 3.851 7.616 3.616 C 7.85 3.382 8.168 3.25 8.5 3.25 L 15.5 3.25 C 15.831 3.25 16.149 3.382 16.384 3.616 C 16.618 3.851 16.75 4.169 16.75 4.5 L 16.75 8 C 16.747 8.198 16.668 8.388 16.527 8.528 C 16.387 8.668 16.198 8.748 16 8.75 Z" style="stroke: rgb(255, 255, 255); fill: rgb(255, 255, 255);"/><path d="M 15.5 20.75 L 8.5 20.75 C 8.168 20.75 7.85 20.618 7.616 20.384 C 7.382 20.15 7.25 19.832 7.25 19.5 L 7.25 12.5 C 7.25 12.169 7.382 11.851 7.616 11.616 C 7.85 11.382 8.168 11.25 8.5 11.25 L 15.5 11.25 C 15.831 11.25 16.149 11.382 16.384 11.616 C 16.618 11.851 16.75 12.169 16.75 12.5 L 16.75 19.5 C 16.75 19.832 16.618 20.15 16.384 20.384 C 16.149 20.618 15.831 20.75 15.5 20.75 Z M 8.75 19.25 L 15.25 19.25 L 15.25 12.75 L 8.75 12.75 L 8.75 19.25 Z" style="stroke: rgb(255, 255, 255); fill: rgb(255, 255, 255);"/></svg>