<?xml version="1.0" encoding="utf-8"?>
<svg xmlns="http://www.w3.org/2000/svg" height="80px" viewBox="0 0 24 24" width="80px" xmlns:bx="https://boxy-svg.com"><defs/><path d="M 18.698 3.939 C 18.492 3.942 18.295 4.025 18.149 4.171 C 18.004 4.317 17.921 4.513 17.918 4.719 L 17.918 7.247 L 17.044 6.373 C 16.14 5.462 15.019 4.796 13.785 4.44 C 12.552 4.085 11.248 4.049 9.997 4.339 C 8.747 4.629 7.591 5.234 6.64 6.096 C 5.689 6.957 4.973 8.049 4.562 9.264 C 4.52 9.364 4.499 9.471 4.5 9.579 C 4.501 9.687 4.525 9.794 4.57 9.892 C 4.615 9.989 4.681 10.077 4.762 10.148 C 4.843 10.219 4.938 10.273 5.041 10.305 C 5.127 10.32 5.216 10.32 5.301 10.305 C 5.464 10.303 5.622 10.251 5.754 10.157 C 5.886 10.061 5.986 9.928 6.039 9.774 C 6.331 8.911 6.818 8.128 7.464 7.486 C 8.588 6.368 10.108 5.739 11.692 5.739 C 13.278 5.739 14.798 6.368 15.92 7.486 L 16.794 8.359 L 14.288 8.359 C 14.081 8.359 13.883 8.442 13.736 8.588 C 13.59 8.735 13.507 8.933 13.507 9.14 C 13.507 9.347 13.59 9.545 13.736 9.692 C 13.883 9.838 14.081 9.92 14.288 9.92 L 18.698 9.92 C 18.801 9.922 18.903 9.902 18.998 9.864 C 19.093 9.825 19.18 9.768 19.253 9.695 C 19.326 9.622 19.383 9.536 19.422 9.44 C 19.46 9.344 19.48 9.243 19.478 9.14 L 19.478 4.719 C 19.478 4.512 19.396 4.314 19.25 4.168 C 19.103 4.021 18.905 3.939 18.698 3.939 Z" style="fill: rgb(255, 255, 255); stroke: rgb(255, 255, 255); stroke-width: 0.8px;"/><path d="M 18.958 13.747 C 18.858 13.709 18.751 13.69 18.644 13.693 C 18.535 13.696 18.43 13.722 18.333 13.768 C 18.235 13.814 18.148 13.879 18.077 13.959 C 18.006 14.04 17.952 14.134 17.918 14.236 C 17.627 15.099 17.14 15.884 16.493 16.524 C 15.37 17.644 13.85 18.271 12.264 18.271 C 10.68 18.271 9.16 17.644 8.036 16.524 L 7.163 15.651 L 9.732 15.651 C 9.939 15.651 10.137 15.569 10.284 15.423 C 10.43 15.276 10.512 15.078 10.512 14.871 C 10.512 14.664 10.43 14.466 10.284 14.319 C 10.137 14.173 9.939 14.091 9.732 14.091 L 5.322 14.091 C 5.219 14.09 5.117 14.108 5.022 14.148 C 4.926 14.186 4.84 14.243 4.767 14.316 C 4.695 14.389 4.637 14.475 4.599 14.571 C 4.559 14.666 4.541 14.768 4.542 14.871 L 4.542 19.281 C 4.542 19.488 4.624 19.686 4.77 19.833 C 4.917 19.979 5.115 20.061 5.322 20.061 C 5.529 20.061 5.727 19.979 5.874 19.833 C 6.02 19.686 6.102 19.488 6.102 19.281 L 6.102 16.753 L 6.975 17.627 C 7.879 18.539 9.002 19.204 10.235 19.561 C 11.468 19.916 12.772 19.951 14.022 19.661 C 15.274 19.371 16.429 18.767 17.38 17.905 C 18.331 17.042 19.046 15.952 19.457 14.735 C 19.491 14.639 19.505 14.535 19.498 14.432 C 19.491 14.329 19.464 14.228 19.417 14.136 C 19.371 14.044 19.306 13.962 19.227 13.895 C 19.148 13.828 19.056 13.779 18.958 13.747 Z" style="fill: rgb(255, 255, 255); stroke: rgb(255, 255, 255); stroke-width: 0.8px;"/></svg>