<svg xmlns="http://www.w3.org/2000/svg" viewBox="0 0 24 24" width="80px" height="80px">
  <path d="M 11.995 15.016 C 11.399 15.016 10.815 14.839 10.32 14.507 C 9.824 14.176 9.437 13.705 9.209 13.154 C 8.981 12.603 8.922 11.997 9.038 11.411 C 9.154 10.827 9.442 10.29 9.863 9.868 C 10.284 9.446 10.822 9.159 11.407 9.042 C 11.992 8.926 12.598 8.986 13.15 9.214 C 13.7 9.443 14.172 9.829 14.503 10.325 C 14.834 10.821 15.01 11.404 15.01 12 C 15.01 12.8 14.693 13.567 14.127 14.133 C 13.562 14.698 12.795 15.016 11.995 15.016 Z M 11.995 10.528 C 11.705 10.528 11.42 10.615 11.178 10.776 C 10.936 10.938 10.746 11.169 10.635 11.437 C 10.524 11.706 10.495 12.002 10.552 12.287 C 10.609 12.572 10.749 12.835 10.954 13.041 C 11.16 13.246 11.423 13.386 11.708 13.444 C 11.994 13.501 12.289 13.471 12.559 13.36 C 12.827 13.249 13.057 13.06 13.219 12.818 C 13.38 12.575 13.467 12.291 13.467 12 C 13.467 11.61 13.312 11.235 13.036 10.96 C 12.76 10.684 12.386 10.528 11.995 10.528 Z" style="stroke: rgb(255, 255, 255); fill: rgb(255, 255, 255);"></path>
  <path d="M 12.057 21.005 C 11.756 21.004 11.459 20.944 11.181 20.826 C 10.904 20.71 10.652 20.539 10.441 20.325 C 10.23 20.111 10.062 19.857 9.95 19.578 C 9.837 19.299 9.78 19 9.782 18.7 C 9.778 18.607 9.748 18.518 9.696 18.441 C 9.643 18.364 9.569 18.305 9.484 18.268 C 9.39 18.224 9.284 18.21 9.182 18.227 C 9.079 18.243 8.984 18.289 8.907 18.36 C 8.48 18.784 7.904 19.024 7.302 19.029 C 6.697 19.033 6.113 18.801 5.676 18.381 C 5.464 18.169 5.296 17.917 5.181 17.64 C 5.066 17.362 5.007 17.066 5.007 16.765 C 5.007 16.465 5.066 16.168 5.181 15.89 C 5.296 15.614 5.464 15.361 5.676 15.149 C 5.749 15.084 5.801 14.998 5.826 14.903 C 5.852 14.808 5.85 14.708 5.82 14.614 C 5.77 14.528 5.698 14.455 5.612 14.404 C 5.525 14.354 5.427 14.327 5.326 14.326 C 4.721 14.324 4.139 14.086 3.706 13.664 C 3.272 13.241 3.019 12.667 3 12.062 C 3.002 11.762 3.062 11.465 3.178 11.188 C 3.294 10.911 3.464 10.66 3.677 10.449 C 3.89 10.238 4.142 10.071 4.42 9.957 C 4.698 9.844 4.996 9.786 5.295 9.787 C 5.389 9.783 5.478 9.753 5.554 9.7 C 5.631 9.647 5.691 9.574 5.727 9.489 C 5.77 9.394 5.785 9.289 5.768 9.186 C 5.752 9.085 5.706 8.989 5.635 8.913 C 5.211 8.486 4.971 7.909 4.966 7.307 C 4.961 7.007 5.015 6.708 5.126 6.429 C 5.238 6.149 5.404 5.895 5.614 5.681 C 5.827 5.469 6.078 5.3 6.356 5.186 C 6.633 5.071 6.93 5.012 7.23 5.012 C 7.53 5.012 7.828 5.071 8.105 5.186 C 8.381 5.3 8.634 5.469 8.846 5.681 C 8.92 5.752 9.011 5.802 9.11 5.827 C 9.209 5.852 9.313 5.852 9.412 5.825 C 9.502 5.776 9.578 5.705 9.634 5.618 C 9.69 5.532 9.723 5.434 9.731 5.331 C 9.731 4.724 9.967 4.14 10.389 3.704 C 10.812 3.268 11.389 3.014 11.995 2.995 C 12.295 2.998 12.592 3.06 12.868 3.177 C 13.144 3.294 13.395 3.464 13.604 3.678 C 13.815 3.892 13.981 4.147 14.093 4.425 C 14.205 4.702 14.262 5 14.259 5.3 C 14.263 5.395 14.292 5.486 14.342 5.566 C 14.393 5.645 14.464 5.71 14.547 5.753 C 14.639 5.786 14.737 5.793 14.831 5.774 C 14.926 5.753 15.013 5.707 15.082 5.64 C 15.51 5.216 16.086 4.976 16.688 4.971 C 16.989 4.962 17.289 5.014 17.569 5.125 C 17.849 5.238 18.102 5.405 18.314 5.619 C 18.527 5.831 18.695 6.084 18.81 6.36 C 18.924 6.638 18.984 6.935 18.984 7.235 C 18.984 7.536 18.924 7.832 18.81 8.11 C 18.695 8.387 18.527 8.639 18.314 8.851 C 18.249 8.928 18.205 9.021 18.184 9.12 C 18.165 9.218 18.171 9.321 18.201 9.417 C 18.25 9.508 18.321 9.584 18.408 9.639 C 18.494 9.695 18.593 9.728 18.695 9.736 C 19.297 9.743 19.873 9.983 20.302 10.405 C 20.731 10.827 20.981 11.398 21 12 C 20.998 12.301 20.936 12.597 20.819 12.873 C 20.702 13.149 20.531 13.4 20.317 13.61 C 20.103 13.82 19.849 13.986 19.57 14.099 C 19.293 14.211 18.995 14.267 18.695 14.264 C 18.601 14.268 18.509 14.297 18.43 14.348 C 18.35 14.398 18.286 14.469 18.242 14.552 C 18.209 14.643 18.202 14.742 18.222 14.837 C 18.242 14.931 18.288 15.018 18.355 15.088 C 18.779 15.515 19.02 16.091 19.024 16.693 C 19.029 16.994 18.975 17.292 18.863 17.571 C 18.752 17.851 18.587 18.105 18.376 18.319 C 18.164 18.531 17.911 18.7 17.635 18.814 C 17.358 18.929 17.06 18.988 16.76 18.988 C 16.46 18.988 16.163 18.929 15.886 18.814 C 15.608 18.7 15.357 18.531 15.144 18.319 C 15.075 18.252 14.988 18.206 14.893 18.185 C 14.798 18.166 14.701 18.173 14.609 18.206 C 14.522 18.256 14.45 18.328 14.4 18.415 C 14.35 18.501 14.322 18.6 14.321 18.7 C 14.314 19.302 14.074 19.877 13.652 20.308 C 13.23 20.737 12.659 20.987 12.057 21.005 Z M 9.268 16.673 C 9.541 16.669 9.811 16.726 10.06 16.837 C 10.428 16.991 10.743 17.247 10.968 17.576 C 11.193 17.904 11.317 18.291 11.326 18.69 C 11.324 18.888 11.398 19.08 11.535 19.224 C 11.672 19.368 11.859 19.453 12.057 19.462 C 12.255 19.446 12.44 19.356 12.574 19.208 C 12.708 19.061 12.781 18.868 12.777 18.669 C 12.78 18.27 12.895 17.879 13.11 17.542 C 13.325 17.206 13.63 16.936 13.991 16.765 C 14.368 16.609 14.782 16.568 15.181 16.646 C 15.58 16.725 15.947 16.921 16.235 17.208 C 16.372 17.345 16.557 17.421 16.75 17.421 C 16.943 17.421 17.128 17.345 17.264 17.208 C 17.401 17.071 17.477 16.887 17.477 16.693 C 17.477 16.501 17.401 16.315 17.264 16.179 C 16.979 15.889 16.786 15.522 16.708 15.123 C 16.631 14.723 16.674 14.31 16.832 13.935 C 16.995 13.574 17.258 13.267 17.59 13.052 C 17.922 12.837 18.31 12.722 18.705 12.721 C 18.902 12.724 19.09 12.65 19.233 12.515 C 19.375 12.381 19.459 12.196 19.467 12 C 19.454 11.8 19.364 11.614 19.216 11.48 C 19.068 11.346 18.874 11.274 18.674 11.28 C 18.272 11.268 17.88 11.146 17.543 10.924 C 17.207 10.701 16.939 10.391 16.77 10.024 C 16.617 9.644 16.577 9.229 16.655 8.826 C 16.733 8.424 16.928 8.053 17.213 7.76 C 17.281 7.692 17.334 7.612 17.371 7.524 C 17.407 7.436 17.426 7.341 17.426 7.245 C 17.426 7.15 17.407 7.055 17.371 6.967 C 17.334 6.879 17.281 6.799 17.213 6.731 C 17.146 6.663 17.066 6.609 16.977 6.573 C 16.889 6.536 16.794 6.518 16.698 6.518 C 16.603 6.518 16.509 6.536 16.42 6.573 C 16.332 6.609 16.251 6.663 16.184 6.731 C 15.894 6.999 15.534 7.18 15.145 7.249 C 14.756 7.318 14.356 7.274 13.991 7.123 C 13.627 6.971 13.314 6.717 13.09 6.392 C 12.866 6.067 12.739 5.685 12.726 5.29 C 12.729 5.094 12.656 4.905 12.521 4.763 C 12.386 4.621 12.201 4.537 12.005 4.528 C 11.807 4.542 11.62 4.631 11.485 4.78 C 11.352 4.927 11.28 5.121 11.285 5.321 C 11.274 5.723 11.151 6.115 10.929 6.452 C 10.707 6.788 10.396 7.056 10.029 7.225 C 9.649 7.379 9.234 7.419 8.831 7.34 C 8.43 7.262 8.059 7.068 7.765 6.782 C 7.698 6.714 7.618 6.661 7.529 6.625 C 7.441 6.588 7.346 6.569 7.25 6.569 C 7.155 6.569 7.061 6.588 6.973 6.625 C 6.884 6.661 6.804 6.714 6.736 6.782 C 6.669 6.85 6.615 6.931 6.578 7.018 C 6.542 7.106 6.523 7.201 6.523 7.297 C 6.523 7.393 6.542 7.487 6.578 7.576 C 6.615 7.663 6.669 7.744 6.736 7.811 C 7.02 8.102 7.211 8.47 7.286 8.869 C 7.362 9.269 7.317 9.681 7.158 10.055 C 7.004 10.422 6.748 10.738 6.42 10.963 C 6.091 11.187 5.704 11.312 5.305 11.321 C 5.107 11.318 4.915 11.393 4.771 11.53 C 4.627 11.666 4.542 11.853 4.533 12.052 C 4.55 12.25 4.64 12.434 4.788 12.569 C 4.935 12.703 5.127 12.775 5.326 12.772 C 5.726 12.774 6.116 12.889 6.454 13.104 C 6.79 13.32 7.06 13.625 7.23 13.986 C 7.386 14.362 7.427 14.776 7.349 15.175 C 7.27 15.574 7.075 15.942 6.787 16.23 C 6.72 16.298 6.667 16.378 6.63 16.466 C 6.594 16.554 6.574 16.649 6.574 16.745 C 6.574 16.84 6.594 16.935 6.63 17.023 C 6.667 17.111 6.72 17.191 6.787 17.259 C 6.855 17.327 6.936 17.381 7.024 17.417 C 7.113 17.454 7.206 17.472 7.302 17.472 C 7.398 17.472 7.492 17.454 7.581 17.417 C 7.669 17.381 7.75 17.327 7.816 17.259 C 8.208 16.886 8.727 16.676 9.268 16.673 Z" style="stroke: rgb(255, 255, 255); fill: rgb(255, 255, 255);"></path>
</svg>