<svg width="80px" height="80px" viewBox="0 0 24 24" fill="none" xmlns="http://www.w3.org/2000/svg">
  <g transform="matrix(0.9764, 0, 0, 0.9764, 0.259175, 0.283197)" style="">
    <g transform="matrix(0, 1, -1, 0, -5.143459, 2.499996)" style="transform-origin: 12px 9.5px;">
      <path d="M12 15.75C11.9015 15.7504 11.8038 15.7312 11.7128 15.6934C11.6218 15.6557 11.5392 15.6001 11.47 15.53L7.47 11.53C7.33752 11.3878 7.2654 11.1997 7.26882 11.0054C7.27225 10.8111 7.35096 10.6258 7.48838 10.4883C7.62579 10.3509 7.81118 10.2722 8.00548 10.2688C8.19978 10.2654 8.38782 10.3375 8.53 10.47L12 13.94L15.47 10.47C15.6122 10.3375 15.8002 10.2654 15.9945 10.2688C16.1888 10.2722 16.3742 10.3509 16.5116 10.4883C16.649 10.6258 16.7277 10.8111 16.7312 11.0054C16.7346 11.1997 16.6625 11.3878 16.53 11.53L12.53 15.53C12.4608 15.6001 12.3782 15.6557 12.2872 15.6934C12.1962 15.7312 12.0985 15.7504 12 15.75Z" style="stroke: rgb(255, 255, 255); fill: rgb(255, 255, 255);"></path>
      <path d="M12 15.75C11.8019 15.7474 11.6126 15.6676 11.4725 15.5275C11.3324 15.3874 11.2526 15.1981 11.25 15V4C11.25 3.80109 11.329 3.61032 11.4697 3.46967C11.6103 3.32902 11.8011 3.25 12 3.25C12.1989 3.25 12.3897 3.32902 12.5303 3.46967C12.671 3.61032 12.75 3.80109 12.75 4V15C12.7474 15.1981 12.6676 15.3874 12.5275 15.5275C12.3874 15.6676 12.1981 15.7474 12 15.75Z" style="stroke: rgb(255, 255, 255); fill: rgb(255, 255, 255);"></path>
    </g>
    <g transform="matrix(0, -1, 1, 0, 5.192668, 2.500008)" style="transform-origin: 12px 9.5px;">
      <path d="M12 15.75C11.9015 15.7504 11.8038 15.7312 11.7128 15.6934C11.6218 15.6557 11.5392 15.6001 11.47 15.53L7.47 11.53C7.33752 11.3878 7.2654 11.1997 7.26882 11.0054C7.27225 10.8111 7.35096 10.6258 7.48838 10.4883C7.62579 10.3509 7.81118 10.2722 8.00548 10.2688C8.19978 10.2654 8.38782 10.3375 8.53 10.47L12 13.94L15.47 10.47C15.6122 10.3375 15.8002 10.2654 15.9945 10.2688C16.1888 10.2722 16.3742 10.3509 16.5116 10.4883C16.649 10.6258 16.7277 10.8111 16.7312 11.0054C16.7346 11.1997 16.6625 11.3878 16.53 11.53L12.53 15.53C12.4608 15.6001 12.3782 15.6557 12.2872 15.6934C12.1962 15.7312 12.0985 15.7504 12 15.75Z" style="stroke: rgb(255, 255, 255); fill: rgb(255, 255, 255);"></path>
      <path d="M12 15.75C11.8019 15.7474 11.6126 15.6676 11.4725 15.5275C11.3324 15.3874 11.2526 15.1981 11.25 15V4C11.25 3.80109 11.329 3.61032 11.4697 3.46967C11.6103 3.32902 11.8011 3.25 12 3.25C12.1989 3.25 12.3897 3.32902 12.5303 3.46967C12.671 3.61032 12.75 3.80109 12.75 4V15C12.7474 15.1981 12.6676 15.3874 12.5275 15.5275C12.3874 15.6676 12.1981 15.7474 12 15.75Z" style="stroke: rgb(255, 255, 255); fill: rgb(255, 255, 255);"></path>
    </g>
  </g>
</svg>