<?xml version="1.0" encoding="utf-8"?>
<svg viewBox="0 0 24 24" fill="none" xmlns="http://www.w3.org/2000/svg">
  <path d="M 17.017 23.998 C 16.733 23.998 16.455 23.943 16.194 23.834 C 15.933 23.728 15.695 23.568 15.497 23.367 L 5.464 13.333 C 5.062 12.929 4.836 12.384 4.836 11.814 C 4.836 11.243 5.062 10.699 5.464 10.295 L 15.497 0.347 C 15.902 0.086 16.38 -0.034 16.862 0.009 C 17.341 0.054 17.791 0.255 18.144 0.588 C 18.493 0.917 18.723 1.356 18.794 1.832 C 18.866 2.308 18.774 2.795 18.536 3.214 L 9.936 11.814 L 18.536 20.414 C 18.938 20.818 19.164 21.363 19.164 21.934 C 19.164 22.504 18.938 23.049 18.536 23.453 C 18.121 23.829 17.576 24.024 17.017 23.998 Z" fill="#000000" transform="matrix(1, 0, 0, 1, -8.881784197001252e-16, 8.881784197001252e-16)"/>
</svg>