<?xml version="1.0" encoding="utf-8"?>
<svg viewBox="0 0 283.46 283.46" xmlns="http://www.w3.org/2000/svg">
  <g transform="matrix(0.8052600026130676, 0, 0, 0.8052600026130676, 80.1276098499269, 97.06436992484612)" style="">
    <path d="M 76.5 65.23 C 34.248 65.23 0 99.483 0 141.73 C 0 183.977 34.248 218.23 76.5 218.23 C 118.752 218.23 153 183.977 153 141.73 C 153 99.483 118.752 65.23 76.5 65.23 M 76.5 208.288 C 39.742 208.288 9.942 178.488 9.942 141.73 C 9.942 104.972 39.742 75.178 76.5 75.178 C 113.258 75.178 143.052 104.972 143.052 141.73 C 143.052 178.488 113.258 208.288 76.5 208.288" style="fill: rgb(31, 60, 144);"/>
    <path d="M 81.567 136.663 L 81.567 94.44 C 81.567 93.096 81.033 91.805 80.088 90.86 C 79.135 89.907 77.844 89.373 76.5 89.373 C 75.162 89.373 73.872 89.907 72.919 90.86 C 71.967 91.805 71.433 93.096 71.433 94.44 L 71.433 136.663 L 29.21 136.663 C 27.873 136.663 26.582 137.197 25.63 138.149 C 24.677 139.095 24.143 140.386 24.143 141.73 C 24.143 143.074 24.677 144.365 25.63 145.311 C 26.582 146.263 27.873 146.797 29.21 146.797 L 71.433 146.797 L 71.433 189.02 C 71.453 190.357 71.994 191.64 72.94 192.587 C 73.885 193.533 75.162 194.073 76.5 194.087 C 77.844 194.087 79.135 193.553 80.088 192.6 C 81.033 191.655 81.567 190.364 81.567 189.02 L 81.567 146.797 L 123.79 146.797 C 125.134 146.797 126.425 146.263 127.377 145.311 C 128.323 144.365 128.857 143.074 128.857 141.73 C 128.843 140.392 128.303 139.115 127.357 138.17 C 126.41 137.224 125.134 136.683 123.79 136.663 L 81.567 136.663 Z" style="stroke-miterlimit: 4.23; fill-rule: nonzero; paint-order: fill; fill: rgb(31, 60, 144); stroke: rgb(31, 60, 144); stroke-width: 8px;"/>
  </g>
  <rect x="141.575" y="26.894" width="0.256" height="100.617" style="fill: none; stroke: rgb(31, 60, 144); stroke-linecap: round; stroke-linejoin: round; stroke-width: 7px;" transform="matrix(1, 0, 0, 1, 0, -5.684341886080802e-14)"/>
</svg>