<?xml version="1.0" encoding="utf-8"?>
<svg viewBox="0 0 283.46 283.46" xmlns="http://www.w3.org/2000/svg">
  <path d="M 141.73 0 C 63.45 0 0 63.46 0 141.73 C 0 220 63.45 283.46 141.73 283.46 C 220.01 283.46 283.46 220 283.46 141.73 C 283.46 63.46 220.01 0 141.73 0 M 141.73 265.04 C 73.63 265.04 18.42 209.83 18.42 141.73 C 18.42 73.63 73.63 18.43 141.73 18.43 C 209.83 18.43 265.03 73.63 265.03 141.73 C 265.03 209.83 209.83 265.04 141.73 265.04" style="fill: rgb(31, 60, 144);" transform="matrix(1, 0, 0, 1, 5.684341886080802e-14, 0)"/>
  <path d="M 151.117 132.343 L 151.117 54.117 C 151.117 51.627 150.128 49.235 148.377 47.484 C 146.612 45.719 144.22 44.73 141.73 44.73 C 139.251 44.73 136.861 45.719 135.096 47.484 C 133.332 49.235 132.343 51.627 132.343 54.117 L 132.343 132.343 L 54.117 132.343 C 51.639 132.343 49.248 133.332 47.484 135.096 C 45.719 136.848 44.73 139.24 44.73 141.73 C 44.73 144.22 45.719 146.612 47.484 148.364 C 49.248 150.128 51.639 151.117 54.117 151.117 L 132.343 151.117 L 132.343 229.343 C 132.38 231.821 133.382 234.198 135.134 235.952 C 136.886 237.704 139.251 238.705 141.73 238.73 C 144.22 238.73 146.612 237.741 148.377 235.976 C 150.128 234.225 151.117 231.834 151.117 229.343 L 151.117 151.117 L 229.343 151.117 C 231.834 151.117 234.225 150.128 235.989 148.364 C 237.741 146.612 238.73 144.22 238.73 141.73 C 238.705 139.251 237.704 136.886 235.952 135.134 C 234.198 133.382 231.834 132.38 229.343 132.343 L 151.117 132.343 Z" style="stroke-miterlimit: 4.23; fill-rule: nonzero; paint-order: fill; fill: rgb(31, 60, 144); stroke: rgb(31, 60, 144); stroke-width: 8px;" transform="matrix(1, 0, 0, 1, 5.684341886080802e-14, 0)"/>
</svg>