<?xml version="1.0" encoding="utf-8"?>
<svg viewBox="0 0 24 24" fill="none" xmlns="http://www.w3.org/2000/svg">
  <path d="M 17.017 0.003 C 16.733 0.003 16.455 0.058 16.194 0.167 C 15.933 0.273 15.695 0.433 15.497 0.634 L 5.464 10.668 C 5.062 11.072 4.836 11.617 4.836 12.187 C 4.836 12.758 5.062 13.302 5.464 13.706 L 15.497 23.654 C 15.902 23.915 16.38 24.035 16.862 23.992 C 17.341 23.947 17.791 23.746 18.144 23.413 C 18.493 23.084 18.723 22.645 18.794 22.169 C 18.866 21.693 18.774 21.206 18.536 20.787 L 9.936 12.187 L 18.536 3.587 C 18.938 3.183 19.164 2.638 19.164 2.067 C 19.164 1.497 18.938 0.952 18.536 0.548 C 18.121 0.172 17.576 -0.023 17.017 0.003 Z" fill="#000000" style="" transform="matrix(-1, 0, 0, -1, 24.000002086163, 24.001199901113)"/>
</svg>